<svg xmlns="http://www.w3.org/2000/svg" width="579mm" height="235mm" viewBox="0 0 579 235"><title>Antora page ID coordinates</title><g transform="translate(0 -341.458)"><rect width="579" height="235" y="341.458" rx="1.026" ry="1.271" fill="#fff"/><g style="line-height:0%;-inkscape-font-specification:'Montserrat Medium, Medium';font-variant-ligatures:normal;font-variant-caps:normal;font-variant-numeric:normal;font-feature-settings:normal;text-align:start" aria-label="version@component:module:page.adoc" font-weight="500" font-size="27.235" font-family="Montserrat Medium" letter-spacing="0" word-spacing="0" fill="#242424" stroke-width=".275" text-anchor="middle"><path style="text-align:center" d="M31.852 452.896l-6.318 14.434h-2.67l-6.318-14.434h2.724l4.956 11.574 5.066-11.574zM46.94 460.194q0 .3-.054.79H35.175q.245 1.907 1.66 3.078 1.444 1.144 3.569 1.144 2.587 0 4.167-1.743l1.443 1.688q-.98 1.144-2.451 1.743-1.444.6-3.241.6-2.288 0-4.058-.927-1.77-.953-2.75-2.641-.954-1.689-.954-3.813 0-2.097.926-3.786.953-1.688 2.587-2.614 1.662-.954 3.731-.954 2.07 0 3.677.954 1.634.926 2.533 2.614.926 1.689.926 3.867zm-7.136-5.229q-1.879 0-3.159 1.144-1.253 1.144-1.47 2.996h9.26q-.218-1.825-1.499-2.968-1.252-1.172-3.132-1.172zM53.068 455.32q.68-1.253 2.015-1.907 1.335-.654 3.241-.654v2.533q-.218-.027-.6-.027-2.123 0-3.349 1.28-1.198 1.253-1.198 3.595v7.19h-2.615v-14.434h2.506zM65.786 467.493q-1.77 0-3.404-.463-1.634-.49-2.56-1.225l1.09-2.07q.953.68 2.314 1.09 1.362.408 2.751.408 3.432 0 3.432-1.961 0-.654-.463-1.035-.463-.381-1.171-.545-.681-.19-1.961-.408-1.743-.272-2.86-.627-1.09-.354-1.88-1.198-.789-.844-.789-2.37 0-1.96 1.634-3.131 1.634-1.199 4.385-1.199 1.443 0 2.887.354 1.443.355 2.37.954l-1.117 2.07q-1.77-1.144-4.167-1.144-1.662 0-2.533.544-.872.545-.872 1.444 0 .708.49 1.116.49.409 1.199.6.735.19 2.042.435 1.743.3 2.806.654 1.089.327 1.852 1.144.762.817.762 2.288 0 1.96-1.688 3.132-1.662 1.143-4.549 1.143zM75.291 452.896h2.615v14.434H75.29zm1.308-2.778q-.763 0-1.28-.49-.49-.49-.49-1.199 0-.708.49-1.198.517-.518 1.28-.518.762 0 1.252.49.518.464.518 1.172 0 .735-.518 1.252-.49.49-1.252.49zM89.072 467.493q-2.151 0-3.867-.953-1.716-.953-2.696-2.614-.954-1.689-.954-3.813 0-2.125.954-3.786.98-1.688 2.696-2.614 1.716-.954 3.867-.954 2.152 0 3.84.954 1.716.926 2.67 2.614.98 1.661.98 3.786 0 2.124-.98 3.813-.954 1.661-2.67 2.614-1.688.953-3.84.953zm0-2.287q1.39 0 2.478-.627 1.117-.653 1.743-1.797.627-1.171.627-2.67 0-1.497-.627-2.641-.626-1.171-1.743-1.797-1.089-.627-2.478-.627-1.389 0-2.505.627-1.09.626-1.744 1.797-.626 1.144-.626 2.642t.626 2.669q.654 1.144 1.744 1.797 1.116.627 2.505.627zM107.891 452.76q2.751 0 4.358 1.606 1.634 1.58 1.634 4.657v8.307h-2.615v-8.007q0-2.097-1.007-3.16-1.008-1.061-2.887-1.061-2.125 0-3.35 1.252-1.226 1.226-1.226 3.54v7.436h-2.614v-14.434h2.505v2.178q.79-1.116 2.125-1.715 1.361-.6 3.077-.6z" fill="#de4c36"/><path style="text-align:center" d="M130.414 448.075q3.677 0 6.564 1.525 2.887 1.498 4.494 4.222 1.634 2.723 1.634 6.21 0 3.485-1.28 5.473t-3.568 1.988q-1.307 0-2.179-.653-.844-.681-1.09-1.934-.816 1.253-2.15 1.934-1.308.653-3.024.653-1.906 0-3.431-.898-1.525-.9-2.397-2.479-.844-1.607-.844-3.622 0-1.988.844-3.568.872-1.607 2.397-2.478 1.525-.899 3.431-.899 1.58 0 2.86.6 1.28.571 2.124 1.715v-2.206h2.37v9.805q0 1.007.435 1.498.436.463 1.117.463 1.198 0 1.852-1.39.68-1.416.68-3.976 0-3.023-1.36-5.31-1.363-2.315-3.841-3.595-2.451-1.28-5.638-1.28-3.213 0-5.692 1.334-2.45 1.335-3.813 3.731-1.361 2.397-1.361 5.474 0 3.105 1.334 5.502 1.362 2.396 3.786 3.73 2.451 1.363 5.637 1.363 1.335 0 2.724-.3 1.389-.3 2.533-.899l.599 1.743q-1.198.627-2.778.954-1.58.326-3.078.326-3.73 0-6.645-1.606-2.887-1.58-4.494-4.412-1.606-2.833-1.606-6.4 0-3.568 1.606-6.374 1.635-2.805 4.549-4.384 2.941-1.58 6.7-1.58zm-.217 17.294q1.334 0 2.369-.6 1.062-.598 1.661-1.688.627-1.116.627-2.587 0-1.47-.627-2.56-.599-1.117-1.661-1.689-1.035-.599-2.37-.599-2.07 0-3.35 1.335-1.28 1.307-1.28 3.513t1.28 3.54q1.308 1.335 3.35 1.335z" fill="#333"/><path style="text-align:center" d="M153.183 467.493q-2.206 0-3.95-.953-1.715-.953-2.696-2.614-.98-1.689-.98-3.813 0-2.125.98-3.786.98-1.688 2.697-2.614 1.743-.954 3.949-.954 1.96 0 3.486.79 1.552.79 2.396 2.288l-1.988 1.28q-.68-1.035-1.688-1.552-1.008-.518-2.234-.518-1.416 0-2.56.627-1.116.626-1.77 1.797-.626 1.144-.626 2.642 0 1.525.626 2.696.654 1.144 1.77 1.77 1.144.627 2.56.627 1.226 0 2.234-.518 1.007-.517 1.688-1.552l1.988 1.253q-.844 1.498-2.396 2.315-1.525.79-3.486.79zM168.407 467.493q-2.152 0-3.868-.953-1.715-.953-2.696-2.614-.953-1.689-.953-3.813 0-2.125.953-3.786.98-1.688 2.696-2.614 1.716-.954 3.868-.954 2.151 0 3.84.954 1.716.926 2.669 2.614.98 1.661.98 3.786 0 2.124-.98 3.813-.953 1.661-2.67 2.614-1.688.953-3.84.953zm0-2.287q1.389 0 2.478-.627 1.117-.653 1.743-1.797.627-1.171.627-2.67 0-1.497-.627-2.641-.626-1.171-1.743-1.797-1.09-.627-2.478-.627-1.39 0-2.506.627-1.09.626-1.743 1.797-.626 1.144-.626 2.642t.626 2.669q.654 1.144 1.743 1.797 1.117.627 2.506.627zM197.575 452.76q2.724 0 4.303 1.579 1.607 1.58 1.607 4.684v8.307h-2.614v-8.007q0-2.097-.98-3.16-.954-1.061-2.752-1.061-1.988 0-3.159 1.252-1.17 1.226-1.17 3.54v7.436h-2.615v-8.007q0-2.097-.98-3.16-.954-1.061-2.752-1.061-1.988 0-3.159 1.252-1.171 1.226-1.171 3.54v7.436h-2.614v-14.434h2.505v2.151q.79-1.117 2.07-1.688 1.28-.6 2.914-.6 1.689 0 2.996.681t2.015 1.988q.817-1.252 2.26-1.96 1.471-.709 3.296-.709zM215.959 452.76q2.097 0 3.758.925 1.661.926 2.587 2.588.953 1.661.953 3.84t-.953 3.867q-.926 1.661-2.587 2.587-1.661.926-3.758.926-1.553 0-2.86-.599-1.28-.599-2.179-1.743v7.463h-2.614v-19.718h2.505v2.287q.872-1.198 2.206-1.797 1.335-.627 2.942-.627zm-.218 12.446q1.389 0 2.478-.627 1.117-.653 1.743-1.797.654-1.171.654-2.67 0-1.497-.654-2.641-.626-1.171-1.743-1.797-1.09-.627-2.478-.627-1.362 0-2.479.654-1.09.626-1.743 1.77-.626 1.144-.626 2.642t.626 2.669q.627 1.144 1.743 1.797 1.117.627 2.479.627zM233.062 467.493q-2.152 0-3.867-.953-1.716-.953-2.697-2.614-.953-1.689-.953-3.813 0-2.125.953-3.786.98-1.688 2.697-2.614 1.715-.954 3.867-.954t3.84.954q1.716.926 2.67 2.614.98 1.661.98 3.786 0 2.124-.98 3.813-.954 1.661-2.67 2.614-1.688.953-3.84.953zm0-2.287q1.389 0 2.478-.627 1.117-.653 1.743-1.797.627-1.171.627-2.67 0-1.497-.627-2.641-.626-1.171-1.743-1.797-1.089-.627-2.478-.627-1.389 0-2.506.627-1.089.626-1.743 1.797-.626 1.144-.626 2.642t.626 2.669q.654 1.144 1.743 1.797 1.117.627 2.506.627zM251.881 452.76q2.75 0 4.358 1.606 1.634 1.58 1.634 4.657v8.307h-2.615v-8.007q0-2.097-1.007-3.16-1.008-1.061-2.887-1.061-2.125 0-3.35 1.252-1.226 1.226-1.226 3.54v7.436h-2.614v-14.434h2.505v2.178q.79-1.116 2.125-1.715 1.361-.6 3.077-.6zM275.848 460.194q0 .3-.055.79h-11.71q.244 1.907 1.66 3.078 1.444 1.144 3.568 1.144 2.588 0 4.167-1.743l1.444 1.688q-.98 1.144-2.451 1.743-1.444.6-3.241.6-2.288 0-4.058-.927-1.77-.953-2.751-2.641-.953-1.689-.953-3.813 0-2.097.926-3.786.953-1.688 2.587-2.614 1.661-.954 3.731-.954t3.677.954q1.634.926 2.533 2.614.926 1.689.926 3.867zm-7.136-5.229q-1.879 0-3.16 1.144-1.252 1.144-1.47 2.996h9.26q-.218-1.825-1.498-2.968-1.253-1.172-3.132-1.172zM287.177 452.76q2.751 0 4.358 1.606 1.634 1.58 1.634 4.657v8.307h-2.615v-8.007q0-2.097-1.007-3.16-1.008-1.061-2.887-1.061-2.124 0-3.35 1.252-1.226 1.226-1.226 3.54v7.436h-2.614v-14.434h2.505v2.178q.79-1.116 2.125-1.715 1.362-.6 3.077-.6zM306.133 466.486q-.572.49-1.417.762-.844.245-1.743.245-2.178 0-3.377-1.17-1.198-1.172-1.198-3.35v-7.926h-2.451v-2.151h2.451v-3.16h2.615v3.16h4.14v2.151h-4.14v7.816q0 1.172.571 1.798.6.626 1.689.626 1.198 0 2.043-.68z" fill="#9340a4"/><path style="text-align:center" d="M309.918 456.49q-.762 0-1.307-.517-.545-.545-.545-1.362 0-.79.545-1.307.545-.545 1.307-.545.763 0 1.28.518.518.517.518 1.334 0 .817-.545 1.362-.517.518-1.253.518zm0 11.003q-.762 0-1.307-.517-.545-.545-.545-1.362 0-.79.545-1.307.545-.545 1.307-.545.763 0 1.28.518.518.517.518 1.334 0 .817-.545 1.362-.517.517-1.253.517z" fill="#333"/><path style="text-align:center" d="M333.53 452.76q2.724 0 4.304 1.579 1.607 1.58 1.607 4.684v8.307h-2.615v-8.007q0-2.097-.98-3.16-.953-1.061-2.75-1.061-1.99 0-3.16 1.252-1.171 1.226-1.171 3.54v7.436h-2.615v-8.007q0-2.097-.98-3.16-.953-1.061-2.75-1.061-1.99 0-3.16 1.252-1.171 1.226-1.171 3.54v7.436h-2.615v-14.434h2.506v2.151q.79-1.117 2.07-1.688 1.28-.6 2.914-.6 1.688 0 2.996.681 1.307.681 2.015 1.988.817-1.252 2.26-1.96 1.471-.709 3.296-.709zM350.525 467.493q-2.151 0-3.867-.953-1.716-.953-2.696-2.614-.954-1.689-.954-3.813 0-2.125.954-3.786.98-1.688 2.696-2.614 1.716-.954 3.867-.954 2.152 0 3.84.954 1.716.926 2.67 2.614.98 1.661.98 3.786 0 2.124-.98 3.813-.954 1.661-2.67 2.614-1.688.953-3.84.953zm0-2.287q1.39 0 2.479-.627 1.116-.653 1.743-1.797.626-1.171.626-2.67 0-1.497-.626-2.641-.627-1.171-1.743-1.797-1.09-.627-2.479-.627t-2.505.627q-1.09.626-1.743 1.797-.627 1.144-.627 2.642t.627 2.669q.653 1.144 1.743 1.797 1.116.627 2.505.627zM375.254 447.122v20.208h-2.505v-2.288q-.872 1.199-2.206 1.825-1.335.626-2.942.626-2.097 0-3.758-.926t-2.615-2.587q-.926-1.688-.926-3.867 0-2.179.926-3.84.954-1.662 2.615-2.588 1.661-.926 3.758-.926 1.553 0 2.86.6 1.307.571 2.179 1.715v-7.952zm-7.435 18.084q1.362 0 2.479-.627 1.116-.653 1.743-1.797.626-1.171.626-2.67 0-1.497-.626-2.641-.627-1.171-1.743-1.797-1.117-.627-2.479-.627-1.389 0-2.505.627-1.09.626-1.743 1.797-.627 1.144-.627 2.642t.627 2.669q.653 1.144 1.743 1.797 1.116.627 2.505.627zM393.665 452.896v14.434h-2.478v-2.179q-.79 1.117-2.097 1.743-1.28.6-2.806.6-2.886 0-4.548-1.58-1.661-1.607-1.661-4.712v-8.306h2.614v8.007q0 2.097 1.008 3.186 1.008 1.062 2.887 1.062 2.07 0 3.268-1.253 1.198-1.252 1.198-3.54v-7.462zM398.649 447.122h2.614v20.208h-2.614zM419.293 460.194q0 .3-.055.79h-11.71q.245 1.907 1.66 3.078 1.444 1.144 3.568 1.144 2.588 0 4.167-1.743l1.444 1.688q-.98 1.144-2.451 1.743-1.444.6-3.241.6-2.288 0-4.058-.927-1.77-.953-2.75-2.641-.954-1.689-.954-3.813 0-2.097.926-3.786.953-1.688 2.587-2.614 1.661-.954 3.731-.954t3.677.954q1.634.926 2.533 2.614.926 1.689.926 3.867zm-7.136-5.229q-1.879 0-3.159 1.144-1.253 1.144-1.47 2.996h9.26q-.219-1.825-1.499-2.968-1.252-1.172-3.132-1.172z" fill="#b91d5e"/><path style="text-align:center" d="M423.541 456.49q-.762 0-1.307-.517-.545-.545-.545-1.362 0-.79.545-1.307.545-.545 1.307-.545.763 0 1.28.518.518.517.518 1.334 0 .817-.545 1.362-.517.518-1.253.518zm0 11.003q-.762 0-1.307-.517-.545-.545-.545-1.362 0-.79.545-1.307.545-.545 1.307-.545.763 0 1.28.518.518.517.518 1.334 0 .817-.545 1.362-.517.517-1.253.517z" fill="#333"/><path style="text-align:center" d="M436.75 452.76q2.097 0 3.759.925 1.661.926 2.587 2.588.953 1.661.953 3.84t-.953 3.867q-.926 1.661-2.587 2.587-1.662.926-3.759.926-1.552 0-2.86-.599-1.28-.599-2.178-1.743v7.463h-2.615v-19.718h2.506v2.287q.871-1.198 2.206-1.797 1.334-.627 2.941-.627zm-.218 12.446q1.39 0 2.479-.627 1.116-.653 1.743-1.797.653-1.171.653-2.67 0-1.497-.653-2.641-.627-1.171-1.743-1.797-1.09-.627-2.479-.627-1.361 0-2.478.654-1.09.626-1.743 1.77-.626 1.144-.626 2.642t.626 2.669q.626 1.144 1.743 1.797 1.117.627 2.478.627zM452.792 452.76q2.995 0 4.575 1.47 1.607 1.47 1.607 4.385v8.715h-2.479v-1.906q-.653 1.007-1.879 1.552-1.198.517-2.86.517-2.423 0-3.894-1.17-1.443-1.172-1.443-3.078 0-1.907 1.389-3.05 1.389-1.172 4.412-1.172h4.14v-.517q0-1.689-.981-2.587-.98-.9-2.887-.9-1.28 0-2.506.437-1.225.408-2.07 1.116l-1.089-1.96q1.117-.9 2.67-1.362 1.551-.49 3.295-.49zm-.6 12.718q1.498 0 2.588-.654 1.089-.68 1.58-1.906v-2.015h-4.031q-3.323 0-3.323 2.233 0 1.09.844 1.716.844.626 2.342.626zM477.711 452.896v12.473q0 3.786-1.879 5.583-1.88 1.825-5.61 1.825-2.043 0-3.895-.572-1.852-.545-2.996-1.58l1.253-2.015q1.008.872 2.478 1.362 1.498.517 3.078.517 2.533 0 3.731-1.198 1.226-1.198 1.226-3.65v-1.143q-.926 1.116-2.288 1.688-1.334.545-2.914.545-2.07 0-3.759-.872-1.66-.898-2.614-2.478-.953-1.607-.953-3.65 0-2.042.953-3.622.953-1.607 2.614-2.478 1.689-.872 3.759-.872 1.634 0 3.023.6 1.416.599 2.315 1.77v-2.233zm-7.517 11.547q1.417 0 2.533-.6 1.144-.598 1.77-1.66.654-1.09.654-2.452 0-2.097-1.389-3.377-1.389-1.307-3.568-1.307-2.206 0-3.595 1.307-1.388 1.28-1.388 3.377 0 1.362.626 2.452.654 1.062 1.77 1.66 1.144.6 2.587.6zM495.74 460.194q0 .3-.054.79h-11.71q.244 1.907 1.66 3.078 1.444 1.144 3.568 1.144 2.588 0 4.167-1.743l1.444 1.688q-.98 1.144-2.451 1.743-1.444.6-3.241.6-2.288 0-4.058-.927-1.77-.953-2.751-2.641-.953-1.689-.953-3.813 0-2.097.926-3.786.953-1.688 2.587-2.614 1.661-.954 3.731-.954t3.677.954q1.634.926 2.533 2.614.926 1.689.926 3.867zm-7.135-5.229q-1.88 0-3.16 1.144-1.252 1.144-1.47 2.996h9.26q-.218-1.825-1.498-2.968-1.253-1.172-3.132-1.172zM499.99 467.493q-.763 0-1.308-.517-.545-.545-.545-1.362 0-.79.545-1.307.545-.545 1.307-.545.763 0 1.28.518.518.517.518 1.334 0 .817-.545 1.362-.517.517-1.253.517zM511.074 452.76q2.996 0 4.575 1.47 1.607 1.47 1.607 4.385v8.715h-2.478v-1.906q-.654 1.007-1.88 1.552-1.198.517-2.86.517-2.423 0-3.894-1.17-1.443-1.172-1.443-3.078 0-1.907 1.389-3.05 1.389-1.172 4.412-1.172h4.14v-.517q0-1.689-.981-2.587-.98-.9-2.887-.9-1.28 0-2.505.437-1.226.408-2.07 1.116l-1.09-1.96q1.117-.9 2.67-1.362 1.552-.49 3.295-.49zm-.6 12.718q1.498 0 2.588-.654 1.09-.68 1.58-1.906v-2.015h-4.031q-3.323 0-3.323 2.233 0 1.09.844 1.716.845.626 2.343.626zM535.803 447.122v20.208h-2.506v-2.288q-.871 1.199-2.206 1.825-1.334.626-2.941.626-2.097 0-3.759-.926-1.66-.926-2.614-2.587-.926-1.688-.926-3.867 0-2.179.926-3.84.953-1.662 2.614-2.588 1.662-.926 3.759-.926 1.552 0 2.86.6 1.307.571 2.178 1.715v-7.952zm-7.435 18.084q1.361 0 2.478-.627 1.117-.653 1.743-1.797.627-1.171.627-2.67 0-1.497-.627-2.641-.626-1.171-1.743-1.797-1.117-.627-2.478-.627-1.39 0-2.506.627-1.09.626-1.743 1.797-.626 1.144-.626 2.642t.626 2.669q.654 1.144 1.743 1.797 1.117.627 2.506.627zM546.942 467.493q-2.152 0-3.868-.953-1.715-.953-2.696-2.614-.953-1.689-.953-3.813 0-2.125.953-3.786.98-1.688 2.696-2.614 1.716-.954 3.868-.954 2.151 0 3.84.954 1.716.926 2.669 2.614.98 1.661.98 3.786 0 2.124-.98 3.813-.953 1.661-2.67 2.614-1.688.953-3.84.953zm0-2.287q1.389 0 2.478-.627 1.117-.653 1.743-1.797.627-1.171.627-2.67 0-1.497-.627-2.641-.626-1.171-1.743-1.797-1.09-.627-2.478-.627-1.39 0-2.506.627-1.09.626-1.743 1.797-.626 1.144-.626 2.642t.626 2.669q.654 1.144 1.743 1.797 1.117.627 2.506.627zM564.345 467.493q-2.206 0-3.95-.953-1.715-.953-2.696-2.614-.98-1.689-.98-3.813 0-2.125.98-3.786.98-1.688 2.697-2.614 1.743-.954 3.949-.954 1.96 0 3.486.79 1.552.79 2.396 2.288l-1.988 1.28q-.68-1.035-1.688-1.552-1.008-.518-2.233-.518-1.417 0-2.56.627-1.117.626-1.77 1.797-.627 1.144-.627 2.642 0 1.525.626 2.696.654 1.144 1.77 1.77 1.144.627 2.56.627 1.226 0 2.234-.518 1.007-.517 1.688-1.552l1.988 1.253q-.844 1.498-2.396 2.315-1.525.79-3.486.79z" fill="#199d4a"/></g><g style="line-height:0%;-inkscape-font-specification:'Montserrat Medium, Medium';font-variant-ligatures:normal;font-variant-caps:normal;font-variant-numeric:normal;font-feature-settings:normal;text-align:start" aria-label="version of component" font-weight="500" font-size="21.788" font-family="Montserrat Medium" letter-spacing="0" word-spacing="0" fill="#de4c36" stroke-width=".275" text-anchor="middle"><path style="line-height:125%;-inkscape-font-specification:'Montserrat Medium, Medium';font-variant-ligatures:normal;font-variant-caps:normal;font-variant-numeric:normal;font-feature-settings:normal;text-align:center" d="M24.827 531.373l-5.055 11.547h-2.135l-5.055-11.547h2.18l3.964 9.26 4.053-9.26zM36.897 537.212q0 .24-.043.631h-9.369q.196 1.526 1.33 2.463 1.154.915 2.853.915 2.07 0 3.334-1.395l1.155 1.351q-.785.915-1.961 1.394-1.155.48-2.593.48-1.83 0-3.246-.741-1.417-.763-2.201-2.113-.763-1.351-.763-3.05 0-1.678.741-3.03.763-1.35 2.07-2.09 1.33-.763 2.985-.763 1.656 0 2.941.762 1.308.74 2.027 2.092.74 1.35.74 3.094zm-5.708-4.184q-1.503 0-2.527.915-1.003.916-1.177 2.397h7.408q-.174-1.46-1.198-2.375-1.003-.937-2.506-.937zM41.8 533.312q.544-1.003 1.612-1.526 1.068-.522 2.593-.522v2.026q-.175-.022-.48-.022-1.7 0-2.68 1.024-.958 1.002-.958 2.876v5.752h-2.092v-11.547H41.8zM51.975 543.05q-1.417 0-2.724-.37-1.307-.392-2.048-.98l.872-1.656q.762.545 1.851.872 1.09.326 2.201.326 2.745 0 2.745-1.568 0-.523-.37-.828-.37-.305-.937-.436-.545-.153-1.569-.327-1.394-.218-2.287-.501-.872-.283-1.504-.959-.632-.675-.632-1.895 0-1.569 1.308-2.506 1.307-.958 3.508-.958 1.154 0 2.309.283 1.155.283 1.896.762l-.894 1.656q-1.416-.915-3.333-.915-1.33 0-2.027.436-.697.436-.697 1.155 0 .566.392.893.393.327.96.48.587.152 1.633.348 1.395.24 2.244.523.872.261 1.482.915t.61 1.83q0 1.569-1.35 2.506-1.33.915-3.64.915zM59.578 531.373h2.092v11.547h-2.092zm1.046-2.223q-.61 0-1.024-.392-.392-.392-.392-.959 0-.566.392-.958.414-.414 1.024-.414.61 0 1.003.392.413.37.413.937 0 .588-.413 1.002-.393.392-1.003.392zM70.603 543.05q-1.721 0-3.094-.762-1.372-.762-2.157-2.091-.762-1.351-.762-3.05 0-1.7.762-3.03.785-1.35 2.157-2.09 1.373-.763 3.094-.763 1.721 0 3.072.762 1.373.74 2.135 2.092.785 1.329.785 3.028 0 1.7-.785 3.05-.762 1.33-2.135 2.092-1.35.763-3.072.763zm0-1.83q1.111 0 1.983-.5.893-.523 1.394-1.439.501-.936.501-2.135 0-1.198-.5-2.113-.502-.937-1.395-1.438-.872-.501-1.983-.501-1.111 0-2.004.5-.872.502-1.395 1.439-.5.915-.5 2.113 0 1.199.5 2.135.523.916 1.395 1.438.893.502 2.004.502zM85.658 531.264q2.201 0 3.486 1.285 1.308 1.264 1.308 3.726v6.645H88.36v-6.406q0-1.677-.806-2.527-.806-.85-2.31-.85-1.699 0-2.68 1.003-.98.98-.98 2.832v5.948h-2.092v-11.547h2.005v1.743q.632-.894 1.7-1.373 1.089-.48 2.461-.48zM105.137 543.05q-1.722 0-3.094-.762-1.373-.762-2.157-2.091-.763-1.351-.763-3.05 0-1.7.763-3.03.784-1.35 2.157-2.09 1.372-.763 3.094-.763 1.72 0 3.072.762 1.372.74 2.135 2.092.784 1.329.784 3.028 0 1.7-.784 3.05-.763 1.33-2.135 2.092-1.351.763-3.072.763zm0-1.83q1.11 0 1.982-.5.894-.523 1.395-1.439.5-.936.5-2.135 0-1.198-.5-2.113-.501-.937-1.395-1.438-.871-.501-1.982-.501t-2.005.5q-.871.502-1.394 1.439-.501.915-.501 2.113 0 1.199.5 2.135.524.916 1.395 1.438.894.502 2.005.502zM118.253 528.344q-1.874 0-1.874 2.026v1.003h3.355v1.72h-3.311v9.827h-2.092v-9.826h-1.96v-1.721h1.96v-1.025q0-1.72 1.002-2.723 1.003-1.002 2.811-1.002.697 0 1.307.174t1.046.501l-.632 1.59q-.719-.544-1.612-.544zM8.236 570.286q-1.765 0-3.16-.763-1.372-.763-2.157-2.092-.784-1.35-.784-3.05 0-1.7.784-3.028.785-1.351 2.157-2.092 1.395-.763 3.16-.763 1.568 0 2.788.632 1.242.632 1.918 1.83l-1.59 1.024q-.545-.828-1.352-1.242-.806-.413-1.786-.413-1.133 0-2.048.5-.894.502-1.416 1.439-.502.915-.502 2.113 0 1.22.502 2.157.522.915 1.416 1.416.915.501 2.048.501.98 0 1.786-.414.807-.414 1.351-1.242l1.59 1.003q-.675 1.198-1.917 1.852-1.22.632-2.788.632zM20.415 570.286q-1.721 0-3.094-.763-1.373-.763-2.157-2.092-.762-1.35-.762-3.05 0-1.7.762-3.028.784-1.351 2.157-2.092 1.373-.763 3.094-.763 1.721 0 3.072.763 1.373.74 2.135 2.092.785 1.329.785 3.028 0 1.7-.785 3.05-.762 1.33-2.135 2.092-1.35.763-3.072.763zm0-1.83q1.111 0 1.983-.502.893-.523 1.394-1.438.501-.937.501-2.135 0-1.198-.501-2.113-.501-.937-1.394-1.438-.872-.501-1.983-.501-1.111 0-2.005.5-.871.502-1.394 1.439-.501.915-.501 2.113t.501 2.135q.523.915 1.394 1.438.894.501 2.005.501zM43.75 558.498q2.178 0 3.442 1.264 1.286 1.264 1.286 3.748v6.645h-2.092v-6.406q0-1.677-.784-2.527-.763-.85-2.201-.85-1.59 0-2.527 1.002-.937.98-.937 2.833v5.948h-2.092v-6.406q0-1.677-.784-2.527-.763-.85-2.2-.85-1.591 0-2.528 1.002-.937.98-.937 2.833v5.948h-2.092v-11.548h2.005v1.722q.632-.894 1.656-1.351 1.024-.48 2.331-.48 1.35 0 2.397.545 1.045.545 1.612 1.59.654-1.002 1.808-1.568 1.177-.567 2.637-.567zM58.456 558.498q1.678 0 3.007.741 1.33.74 2.07 2.07.763 1.329.763 3.072t-.763 3.094q-.74 1.329-2.07 2.07-1.329.74-3.007.74-1.242 0-2.287-.479-1.024-.48-1.743-1.394v5.97h-2.092v-15.775h2.004v1.83q.698-.958 1.765-1.438 1.068-.5 2.353-.5zm-.174 9.957q1.111 0 1.983-.5.893-.524 1.394-1.439.523-.937.523-2.135 0-1.198-.523-2.113-.5-.937-1.394-1.438-.872-.501-1.983-.501-1.09 0-1.983.522-.871.502-1.394 1.417-.501.915-.501 2.113t.501 2.135q.501.915 1.394 1.438.894.501 1.983.501zM72.14 570.286q-1.722 0-3.095-.763-1.372-.763-2.157-2.092-.762-1.35-.762-3.05 0-1.7.762-3.028.785-1.351 2.157-2.092 1.373-.763 3.094-.763 1.721 0 3.072.763 1.373.74 2.135 2.092.785 1.329.785 3.028 0 1.7-.785 3.05-.762 1.33-2.135 2.092-1.35.763-3.072.763zm0-1.83q1.11 0 1.982-.502.893-.523 1.394-1.438.501-.937.501-2.135 0-1.198-.5-2.113-.502-.937-1.395-1.438-.872-.501-1.983-.501-1.111 0-2.004.5-.872.502-1.395 1.439-.5.915-.5 2.113t.5 2.135q.523.915 1.395 1.438.893.501 2.004.501zM87.194 558.498q2.201 0 3.486 1.286 1.308 1.263 1.308 3.726v6.645h-2.092v-6.406q0-1.677-.806-2.527-.806-.85-2.31-.85-1.699 0-2.68 1.002-.98.98-.98 2.833v5.948h-2.092v-11.548h2.005v1.743q.632-.893 1.7-1.372 1.089-.48 2.461-.48zM106.368 564.446q0 .24-.044.632h-9.369q.196 1.525 1.33 2.462 1.154.915 2.854.915 2.07 0 3.333-1.394l1.155 1.35q-.785.916-1.961 1.395-1.155.48-2.593.48-1.83 0-3.246-.741-1.416-.763-2.2-2.114-.763-1.35-.763-3.05 0-1.678.74-3.028.763-1.351 2.07-2.092 1.33-.763 2.985-.763 1.656 0 2.942.763 1.307.74 2.026 2.092.74 1.35.74 3.093zm-5.709-4.183q-1.503 0-2.527.915-1.002.915-1.177 2.397h7.408q-.174-1.46-1.198-2.375-1.002-.937-2.506-.937zM115.431 558.498q2.2 0 3.486 1.286 1.308 1.263 1.308 3.726v6.645h-2.092v-6.406q0-1.677-.806-2.527-.806-.85-2.31-.85-1.699 0-2.68 1.002-.98.98-.98 2.833v5.948h-2.092v-11.548h2.005v1.743q.632-.893 1.7-1.372 1.089-.48 2.461-.48zM130.596 569.48q-.458.392-1.133.61-.676.196-1.395.196-1.743 0-2.701-.937-.96-.937-.96-2.68v-6.34h-1.96v-1.722h1.96v-2.527h2.093v2.527h3.311v1.722H126.5v6.253q0 .936.457 1.438.48.5 1.351.5.959 0 1.634-.544z"/></g><g style="line-height:0%;-inkscape-font-specification:'Montserrat Medium, Medium';font-variant-ligatures:normal;font-variant-caps:normal;font-variant-numeric:normal;font-feature-settings:normal;text-align:start" aria-label="name of component" font-weight="500" font-size="21.788" font-family="Montserrat Medium" letter-spacing="0" word-spacing="0" fill="#9340a4" stroke-width=".275" text-anchor="middle"><path style="line-height:125%;-inkscape-font-specification:'Montserrat Medium, Medium';font-variant-ligatures:normal;font-variant-caps:normal;font-variant-numeric:normal;font-feature-settings:normal;text-align:center" d="M187.916 348.503q2.2 0 3.486 1.285 1.307 1.264 1.307 3.726v6.645h-2.092v-6.406q0-1.677-.806-2.527-.806-.85-2.31-.85-1.699 0-2.68 1.003-.98.98-.98 2.832v5.948h-2.091v-11.548h2.004v1.744q.632-.894 1.7-1.373 1.089-.48 2.462-.48zM200.792 348.503q2.397 0 3.66 1.176 1.286 1.177 1.286 3.508v6.972h-1.983v-1.525q-.523.806-1.503 1.242-.959.414-2.288.414-1.939 0-3.115-.937-1.155-.937-1.155-2.462 0-1.525 1.11-2.44 1.112-.937 3.53-.937h3.312v-.414q0-1.351-.784-2.07-.784-.72-2.31-.72-1.024 0-2.004.35-.98.326-1.656.893l-.871-1.569q.893-.719 2.135-1.09 1.242-.391 2.636-.391zm-.48 10.174q1.2 0 2.07-.522.872-.545 1.264-1.526v-1.612h-3.224q-2.658 0-2.658 1.787 0 .871.675 1.372.675.501 1.874.501zM224.061 348.503q2.18 0 3.443 1.263 1.285 1.264 1.285 3.748v6.645h-2.091v-6.406q0-1.677-.785-2.527-.762-.85-2.2-.85-1.59 0-2.528 1.003-.936.98-.936 2.832v5.948h-2.092v-6.406q0-1.677-.784-2.527-.763-.85-2.201-.85-1.59 0-2.527 1.003-.937.98-.937 2.832v5.948h-2.092v-11.548h2.005v1.722q.631-.894 1.655-1.351 1.025-.48 2.332-.48 1.35 0 2.396.545 1.046.545 1.613 1.59.653-1.001 1.808-1.568 1.177-.566 2.636-.566zM243.148 354.45q0 .24-.044.632h-9.369q.196 1.526 1.33 2.462 1.154.916 2.853.916 2.07 0 3.334-1.395l1.155 1.351q-.785.915-1.961 1.394-1.155.48-2.593.48-1.83 0-3.246-.741-1.417-.763-2.2-2.113-.763-1.351-.763-3.05 0-1.678.74-3.03.763-1.35 2.07-2.09 1.33-.763 2.985-.763 1.656 0 2.941.762 1.308.74 2.027 2.092.74 1.35.74 3.094zm-5.709-4.183q-1.503 0-2.527.915-1.003.916-1.177 2.397h7.408q-.174-1.46-1.198-2.375-1.003-.937-2.506-.937zM256.852 360.29q-1.721 0-3.094-.763-1.372-.762-2.157-2.091-.762-1.351-.762-3.05 0-1.7.762-3.03.785-1.35 2.157-2.09 1.373-.763 3.094-.763 1.721 0 3.072.762 1.373.74 2.135 2.092.785 1.329.785 3.028 0 1.7-.785 3.05-.762 1.33-2.135 2.092-1.35.763-3.072.763zm0-1.83q1.111 0 1.983-.502.893-.522 1.394-1.438.501-.936.501-2.135 0-1.198-.5-2.113-.502-.937-1.395-1.438-.872-.501-1.983-.501-1.111 0-2.004.5-.872.502-1.395 1.439-.501.915-.501 2.113 0 1.199.501 2.135.523.916 1.395 1.438.893.502 2.004.502zM269.968 345.583q-1.874 0-1.874 2.026v1.002h3.356v1.722h-3.312v9.826h-2.092v-9.826h-1.96v-1.722h1.96v-1.024q0-1.72 1.003-2.723 1.002-1.002 2.81-1.002.698 0 1.308.174.61.174 1.045.501l-.631 1.59q-.72-.544-1.613-.544zM167.664 387.525q-1.765 0-3.16-.763-1.372-.763-2.156-2.092-.785-1.35-.785-3.05 0-1.7.785-3.028.784-1.351 2.157-2.092 1.394-.763 3.159-.763 1.569 0 2.789.632 1.242.632 1.917 1.83l-1.59 1.024q-.545-.828-1.351-1.242-.807-.414-1.787-.414-1.133 0-2.048.502-.893.5-1.416 1.438-.501.915-.501 2.113 0 1.22.5 2.157.524.915 1.417 1.416.915.501 2.048.501.98 0 1.787-.414.806-.414 1.35-1.242l1.59 1.003q-.674 1.198-1.916 1.852-1.22.632-2.79.632zM179.843 387.525q-1.721 0-3.094-.763-1.372-.763-2.157-2.092-.762-1.35-.762-3.05 0-1.7.762-3.028.785-1.351 2.157-2.092 1.373-.763 3.094-.763 1.721 0 3.072.763 1.373.74 2.135 2.092.785 1.329.785 3.028 0 1.7-.785 3.05-.762 1.33-2.135 2.092-1.35.763-3.072.763zm0-1.83q1.111 0 1.983-.502.893-.523 1.394-1.438.501-.937.501-2.135 0-1.198-.5-2.113-.502-.937-1.395-1.438-.872-.502-1.983-.502-1.111 0-2.004.502-.872.5-1.395 1.438-.5.915-.5 2.113t.5 2.135q.523.915 1.395 1.438.893.501 2.004.501zM203.178 375.737q2.179 0 3.442 1.264 1.286 1.264 1.286 3.748v6.645h-2.092v-6.406q0-1.677-.784-2.527-.763-.85-2.2-.85-1.591 0-2.528 1.002-.937.98-.937 2.833v5.948h-2.092v-6.406q0-1.677-.784-2.527-.763-.85-2.2-.85-1.591 0-2.528 1.002-.937.98-.937 2.833v5.948h-2.091v-11.548h2.004v1.721q.632-.893 1.656-1.35 1.024-.48 2.331-.48 1.351 0 2.397.545 1.046.545 1.612 1.59.654-1.002 1.808-1.568 1.177-.567 2.637-.567zM217.885 375.737q1.677 0 3.006.741 1.33.74 2.07 2.07.763 1.329.763 3.072t-.763 3.094q-.74 1.329-2.07 2.07-1.329.74-3.006.74-1.242 0-2.288-.479-1.024-.48-1.743-1.394v5.97h-2.092v-15.775h2.005v1.83q.697-.958 1.764-1.438 1.068-.5 2.354-.5zm-.175 9.957q1.111 0 1.983-.5.893-.524 1.394-1.439.523-.937.523-2.135 0-1.198-.523-2.113-.5-.937-1.394-1.438-.872-.502-1.983-.502-1.09 0-1.982.523-.872.502-1.395 1.417-.501.915-.501 2.113t.501 2.135q.501.915 1.395 1.438.893.501 1.982.501zM231.567 387.525q-1.721 0-3.094-.763-1.372-.763-2.157-2.092-.762-1.35-.762-3.05 0-1.7.762-3.028.785-1.351 2.157-2.092 1.373-.763 3.094-.763 1.722 0 3.072.763 1.373.74 2.136 2.092.784 1.329.784 3.028 0 1.7-.784 3.05-.763 1.33-2.136 2.092-1.35.763-3.072.763zm0-1.83q1.111 0 1.983-.502.893-.523 1.394-1.438.502-.937.502-2.135 0-1.198-.502-2.113-.5-.937-1.394-1.438-.872-.502-1.983-.502-1.11 0-2.004.502-.872.5-1.395 1.438-.5.915-.5 2.113t.5 2.135q.523.915 1.395 1.438.893.501 2.004.501zM246.623 375.737q2.2 0 3.486 1.286 1.307 1.263 1.307 3.726v6.645h-2.092v-6.406q0-1.677-.806-2.527-.806-.85-2.31-.85-1.699 0-2.68 1.002-.98.98-.98 2.833v5.948h-2.091v-11.548h2.004v1.743q.632-.893 1.7-1.372 1.089-.48 2.462-.48zM265.796 381.685q0 .24-.044.632h-9.369q.197 1.525 1.33 2.462 1.154.915 2.854.915 2.07 0 3.333-1.394l1.155 1.35q-.784.916-1.96 1.395-1.156.48-2.594.48-1.83 0-3.246-.741-1.416-.763-2.2-2.114-.763-1.35-.763-3.05 0-1.678.74-3.028.763-1.351 2.07-2.092 1.33-.763 2.985-.763 1.656 0 2.942.763 1.307.74 2.026 2.092.74 1.35.74 3.093zm-5.709-4.183q-1.503 0-2.527.915-1.002.915-1.176 2.397h7.407q-.174-1.46-1.198-2.375-1.002-.937-2.506-.937zM274.86 375.737q2.2 0 3.486 1.286 1.307 1.263 1.307 3.726v6.645h-2.092v-6.406q0-1.677-.806-2.527-.806-.85-2.31-.85-1.699 0-2.68 1.002-.98.98-.98 2.833v5.948h-2.091v-11.548h2.004v1.743q.632-.893 1.7-1.372 1.089-.48 2.462-.48zM290.024 386.718q-.458.393-1.133.61-.676.197-1.395.197-1.743 0-2.701-.937-.959-.937-.959-2.68v-6.34h-1.96v-1.722h1.96v-2.527h2.092v2.527h3.312v1.721h-3.312v6.254q0 .936.457 1.438.48.5 1.351.5.959 0 1.634-.544z"/></g><g style="line-height:0%;-inkscape-font-specification:'Montserrat Medium, Medium';font-variant-ligatures:normal;font-variant-caps:normal;font-variant-numeric:normal;font-feature-settings:normal;text-align:start" aria-label="name of module" font-weight="500" font-size="21.788" font-family="Montserrat Medium" letter-spacing="0" word-spacing="0" fill="#b91d5e" stroke-width=".275" text-anchor="middle"><path style="line-height:125%;-inkscape-font-specification:'Montserrat Medium, Medium';font-variant-ligatures:normal;font-variant-caps:normal;font-variant-numeric:normal;font-feature-settings:normal;text-align:center" d="M328.964 531.067q2.2 0 3.486 1.286 1.307 1.264 1.307 3.726v6.645h-2.092v-6.406q0-1.677-.806-2.527-.806-.85-2.31-.85-1.699 0-2.68 1.002-.98.98-.98 2.833v5.948h-2.091v-11.548h2.004v1.743q.632-.893 1.7-1.372 1.089-.48 2.462-.48zM341.84 531.067q2.397 0 3.66 1.177 1.286 1.177 1.286 3.508v6.972h-1.983v-1.525q-.523.806-1.503 1.242-.959.414-2.288.414-1.939 0-3.115-.937-1.155-.937-1.155-2.462 0-1.525 1.111-2.44 1.111-.937 3.53-.937h3.311v-.414q0-1.351-.784-2.07-.784-.72-2.31-.72-1.024 0-2.004.35-.98.326-1.656.893l-.871-1.569q.893-.719 2.135-1.09 1.242-.392 2.636-.392zm-.48 10.175q1.2 0 2.07-.523.872-.544 1.264-1.525v-1.612h-3.224q-2.658 0-2.658 1.787 0 .871.675 1.372.675.501 1.874.501zM365.11 531.067q2.178 0 3.442 1.264 1.285 1.264 1.285 3.748v6.645h-2.091v-6.406q0-1.677-.785-2.527-.762-.85-2.2-.85-1.59 0-2.527 1.002-.937.98-.937 2.833v5.948h-2.092v-6.406q0-1.677-.784-2.527-.763-.85-2.2-.85-1.591 0-2.528 1.002-.937.98-.937 2.833v5.948h-2.092v-11.548h2.005v1.722q.632-.894 1.656-1.351 1.024-.48 2.33-.48 1.352 0 2.398.545 1.045.545 1.612 1.59.653-1.002 1.808-1.568 1.177-.567 2.637-.567zM384.196 537.016q0 .24-.044.631h-9.369q.196 1.526 1.33 2.462 1.154.915 2.853.915 2.07 0 3.334-1.394l1.155 1.35q-.785.916-1.961 1.395-1.155.48-2.593.48-1.83 0-3.246-.741-1.416-.763-2.2-2.114-.763-1.35-.763-3.05 0-1.677.74-3.028.763-1.351 2.07-2.092 1.33-.763 2.985-.763 1.656 0 2.942.763 1.307.74 2.026 2.092.74 1.35.74 3.094zm-5.709-4.184q-1.503 0-2.527.915-1.002.915-1.177 2.397h7.408q-.174-1.46-1.198-2.375-1.002-.937-2.506-.937zM397.9 542.855q-1.721 0-3.094-.763-1.372-.762-2.157-2.092-.762-1.35-.762-3.05 0-1.7.762-3.028.785-1.351 2.157-2.092 1.373-.763 3.094-.763 1.721 0 3.072.763 1.373.74 2.135 2.092.785 1.329.785 3.028 0 1.7-.785 3.05-.762 1.33-2.135 2.092-1.35.763-3.072.763zm0-1.83q1.111 0 1.983-.502.893-.523 1.394-1.438.501-.936.501-2.135 0-1.198-.5-2.113-.502-.937-1.395-1.438-.872-.501-1.983-.501-1.111 0-2.004.5-.872.502-1.395 1.439-.5.915-.5 2.113 0 1.199.5 2.135.523.915 1.395 1.438.893.501 2.004.501zM411.016 528.148q-1.873 0-1.873 2.026v1.002h3.355v1.722h-3.312v9.826h-2.092v-9.826h-1.96v-1.722h1.96v-1.024q0-1.72 1.003-2.723 1.002-1.002 2.81-1.002.698 0 1.308.174.61.174 1.045.501l-.631 1.59q-.72-.544-1.613-.544zM340.108 558.302q2.179 0 3.442 1.264 1.286 1.264 1.286 3.747v6.646h-2.092v-6.406q0-1.678-.784-2.527-.763-.85-2.2-.85-1.591 0-2.528 1.002-.937.98-.937 2.833v5.948h-2.091v-6.406q0-1.678-.785-2.527-.762-.85-2.2-.85-1.59 0-2.528 1.002-.937.98-.937 2.833v5.948h-2.091V558.41h2.004v1.721q.632-.893 1.656-1.35 1.024-.48 2.331-.48 1.351 0 2.397.545 1.046.545 1.612 1.59.654-1.002 1.809-1.568 1.176-.567 2.636-.567zM353.704 570.09q-1.722 0-3.094-.763-1.373-.763-2.157-2.092-.763-1.35-.763-3.05 0-1.7.763-3.029.784-1.35 2.157-2.091 1.372-.763 3.094-.763 1.72 0 3.072.763 1.372.74 2.135 2.091.784 1.33.784 3.029 0 1.7-.784 3.05-.763 1.33-2.135 2.092-1.351.762-3.072.762zm0-1.83q1.11 0 1.982-.502.894-.523 1.395-1.438.5-.937.5-2.135 0-1.198-.5-2.113-.501-.937-1.395-1.438-.871-.502-1.982-.502-1.112 0-2.005.502-.871.5-1.394 1.438-.501.915-.501 2.113t.5 2.135q.524.915 1.395 1.438.893.501 2.005.501zM373.487 553.792v16.167h-2.005v-1.83q-.697.958-1.764 1.46-1.068.5-2.354.5-1.677 0-3.006-.74-1.33-.741-2.092-2.07-.74-1.351-.74-3.094 0-1.743.74-3.072.763-1.33 2.092-2.07 1.329-.74 3.006-.74 1.242 0 2.288.479 1.046.457 1.743 1.372v-6.362zm-5.948 14.467q1.09 0 1.982-.5.894-.524 1.395-1.439.501-.937.501-2.135 0-1.198-.501-2.113-.501-.937-1.395-1.438-.893-.502-1.982-.502-1.111 0-2.005.502-.871.5-1.394 1.438-.501.915-.501 2.113t.5 2.135q.524.915 1.395 1.438.894.501 2.005.501zM388.215 558.411v11.548h-1.982v-1.743q-.632.893-1.678 1.394-1.024.48-2.244.48-2.31 0-3.639-1.264-1.329-1.286-1.329-3.77v-6.645h2.092v6.406q0 1.677.806 2.549.806.85 2.31.85 1.655 0 2.614-1.003.959-1.002.959-2.832v-5.97zM392.203 553.792h2.091v16.167h-2.091zM408.718 564.25q0 .24-.044.632h-9.369q.196 1.525 1.33 2.462 1.154.915 2.854.915 2.07 0 3.333-1.394l1.155 1.35q-.785.916-1.961 1.395-1.155.48-2.593.48-1.83 0-3.246-.741-1.416-.763-2.2-2.114-.763-1.35-.763-3.05 0-1.678.74-3.029.763-1.35 2.07-2.091 1.33-.763 2.985-.763 1.656 0 2.942.763 1.307.74 2.026 2.091.74 1.351.74 3.094zm-5.709-4.183q-1.503 0-2.527.915-1.002.915-1.177 2.397h7.408q-.174-1.46-1.198-2.375-1.002-.937-2.506-.937z"/></g><g style="line-height:0%;-inkscape-font-specification:'Montserrat Medium, Medium';font-variant-ligatures:normal;font-variant-caps:normal;font-variant-numeric:normal;font-feature-settings:normal;text-align:start" aria-label="family-relative path of page" font-weight="500" font-size="21.788" font-family="Montserrat Medium" letter-spacing="0" word-spacing="0" fill="#199d4a" stroke-width=".275" text-anchor="middle"><path style="line-height:125%;-inkscape-font-specification:'Montserrat Medium, Medium';font-variant-ligatures:normal;font-variant-caps:normal;font-variant-numeric:normal;font-feature-settings:normal;text-align:center" d="M426.66 345.452q-1.874 0-1.874 2.027v1.002h3.356v1.721h-3.312v9.826h-2.092v-9.826h-1.96v-1.721h1.96v-1.024q0-1.722 1.003-2.724 1.002-1.002 2.81-1.002.697 0 1.308.174.61.175 1.045.501l-.632 1.591q-.719-.545-1.612-.545zM434.112 348.372q2.396 0 3.66 1.176 1.285 1.177 1.285 3.508v6.972h-1.982v-1.525q-.523.806-1.504 1.242-.958.414-2.287.414-1.94 0-3.116-.937-1.155-.937-1.155-2.462 0-1.525 1.111-2.44 1.112-.937 3.53-.937h3.312v-.414q0-1.35-.785-2.07-.784-.719-2.31-.719-1.023 0-2.004.349-.98.327-1.655.893l-.872-1.569q.893-.719 2.135-1.089 1.242-.392 2.637-.392zm-.48 10.175q1.199 0 2.07-.523.872-.545 1.264-1.525v-1.613h-3.225q-2.658 0-2.658 1.787 0 .871.675 1.373.676.5 1.874.5zM457.38 348.372q2.18 0 3.443 1.264 1.286 1.263 1.286 3.747v6.645h-2.092v-6.405q0-1.678-.784-2.528-.763-.85-2.2-.85-1.591 0-2.528 1.003-.937.98-.937 2.832v5.948h-2.092v-6.405q0-1.678-.784-2.528-.762-.85-2.2-.85-1.591 0-2.528 1.003-.937.98-.937 2.832v5.948h-2.091v-11.547h2.004v1.721q.632-.893 1.656-1.35 1.024-.48 2.331-.48 1.351 0 2.397.545 1.046.544 1.612 1.59.654-1.002 1.809-1.569 1.176-.566 2.636-.566zM465.965 348.48h2.092v11.548h-2.092zm1.046-2.222q-.61 0-1.024-.392-.392-.392-.392-.958 0-.567.392-.96.414-.413 1.024-.413.61 0 1.002.392.414.37.414.937 0 .588-.414 1.002-.392.392-1.002.392zM472.044 343.862h2.092v16.166h-2.092zM488.341 348.48l-5.6 12.703q-.74 1.765-1.742 2.484-.98.719-2.375.719-.85 0-1.656-.283-.784-.262-1.307-.785l.893-1.568q.893.85 2.07.85.763 0 1.264-.415.523-.392.937-1.372l.37-.806-5.098-11.526h2.178l4.031 9.238 3.987-9.238zM489.278 353.143h5.861v1.809h-5.86zM500.368 350.42q.545-1.002 1.612-1.525 1.068-.523 2.593-.523v2.026q-.174-.022-.48-.022-1.699 0-2.679 1.024-.959 1.003-.959 2.876v5.752h-2.091v-11.547h2.004zM517.472 354.32q0 .24-.044.632h-9.369q.196 1.525 1.33 2.462 1.154.915 2.853.915 2.07 0 3.334-1.395l1.155 1.351q-.785.915-1.961 1.395-1.155.479-2.593.479-1.83 0-3.246-.74-1.416-.763-2.2-2.114-.763-1.351-.763-3.05 0-1.678.74-3.029.763-1.35 2.07-2.092 1.33-.762 2.985-.762 1.656 0 2.941.762 1.308.741 2.027 2.092.74 1.35.74 3.094zm-5.709-4.183q-1.503 0-2.527.915-1.002.915-1.177 2.396h7.408q-.174-1.46-1.198-2.374-1.002-.937-2.506-.937zM520.37 343.862h2.091v16.166h-2.092zM530.653 348.372q2.397 0 3.66 1.176 1.286 1.177 1.286 3.508v6.972h-1.983v-1.525q-.523.806-1.503 1.242-.959.414-2.288.414-1.939 0-3.115-.937-1.155-.937-1.155-2.462 0-1.525 1.111-2.44 1.111-.937 3.53-.937h3.311v-.414q0-1.35-.784-2.07-.784-.719-2.31-.719-1.024 0-2.004.349-.98.327-1.656.893l-.871-1.569q.893-.719 2.135-1.089 1.242-.392 2.636-.392zm-.48 10.175q1.2 0 2.07-.523.872-.545 1.264-1.525v-1.613h-3.224q-2.658 0-2.658 1.787 0 .871.675 1.373.676.5 1.874.5zM545.97 359.353q-.458.392-1.133.61-.675.196-1.394.196-1.743 0-2.702-.937-.959-.937-.959-2.68v-6.34h-1.96v-1.721h1.96v-2.528h2.092v2.528h3.312v1.721h-3.312v6.253q0 .937.457 1.438.48.501 1.351.501.959 0 1.634-.544zM548.497 348.48h2.092v11.548h-2.092zm1.046-2.222q-.61 0-1.024-.392-.392-.392-.392-.958 0-.567.392-.96.414-.413 1.024-.413.61 0 1.002.392.414.37.414.937 0 .588-.414 1.002-.392.392-1.002.392zM564.795 348.48l-5.055 11.548h-2.135l-5.055-11.547h2.179l3.965 9.26 4.053-9.26zM576.865 354.32q0 .24-.044.632h-9.368q.196 1.525 1.329 2.462 1.154.915 2.854.915 2.07 0 3.333-1.395l1.155 1.351q-.784.915-1.96 1.395-1.155.479-2.593.479-1.83 0-3.247-.74-1.416-.763-2.2-2.114-.763-1.351-.763-3.05 0-1.678.74-3.029.763-1.35 2.07-2.092 1.33-.762 2.986-.762 1.655 0 2.94.762 1.308.741 2.027 2.092.74 1.35.74 3.094zm-5.708-4.183q-1.504 0-2.528.915-1.002.915-1.176 2.396h7.408q-.175-1.46-1.199-2.374-1.002-.937-2.505-.937zM436.672 375.607q1.677 0 3.006.74 1.33.741 2.07 2.07.763 1.33.763 3.072 0 1.743-.763 3.094-.74 1.33-2.07 2.07-1.329.74-3.006.74-1.242 0-2.288-.479-1.024-.479-1.743-1.394v5.97h-2.092v-15.774h2.005v1.83q.697-.959 1.765-1.438 1.067-.501 2.353-.501zm-.175 9.957q1.112 0 1.983-.502.893-.522 1.394-1.438.523-.936.523-2.135 0-1.198-.523-2.113-.5-.937-1.394-1.438-.871-.501-1.983-.501-1.089 0-1.982.523-.872.5-1.395 1.416-.5.915-.5 2.113 0 1.199.5 2.135.501.916 1.395 1.438.893.502 1.982.502zM449.505 375.607q2.396 0 3.66 1.176 1.285 1.177 1.285 3.508v6.972h-1.982v-1.525q-.523.806-1.504 1.242-.958.414-2.287.414-1.94 0-3.116-.937-1.155-.937-1.155-2.462 0-1.525 1.111-2.44 1.112-.937 3.53-.937h3.312v-.414q0-1.351-.785-2.07-.784-.719-2.309-.719-1.024 0-2.004.349-.981.326-1.656.893l-.872-1.569q.893-.719 2.135-1.09 1.242-.391 2.637-.391zm-.48 10.174q1.199 0 2.07-.522.872-.545 1.264-1.526v-1.612h-3.225q-2.658 0-2.658 1.787 0 .871.676 1.372.675.501 1.873.501zM464.821 386.588q-.457.392-1.133.61-.675.196-1.394.196-1.743 0-2.702-.937-.958-.937-.958-2.68v-6.34h-1.961v-1.721h1.96v-2.528h2.092v2.528h3.312v1.72h-3.312v6.254q0 .937.458 1.438.48.501 1.35.501.96 0 1.635-.545zM473.515 375.607q2.2 0 3.486 1.285 1.307 1.264 1.307 3.726v6.645h-2.092v-6.406q0-1.677-.806-2.527-.806-.85-2.31-.85-1.699 0-2.68 1.003-.98.98-.98 2.832v5.948h-2.091v-16.167h2.091v6.254q.654-.828 1.7-1.286 1.068-.457 2.375-.457zM492.993 387.394q-1.721 0-3.094-.763-1.372-.762-2.157-2.091-.762-1.351-.762-3.05 0-1.7.762-3.03.785-1.35 2.157-2.09 1.373-.763 3.094-.763 1.721 0 3.072.762 1.373.74 2.135 2.092.785 1.329.785 3.028 0 1.7-.785 3.05-.762 1.33-2.135 2.092-1.35.763-3.072.763zm0-1.83q1.111 0 1.983-.502.893-.522 1.394-1.438.501-.936.501-2.135 0-1.198-.5-2.113-.502-.937-1.395-1.438-.872-.501-1.983-.501-1.111 0-2.004.5-.872.502-1.395 1.439-.501.915-.501 2.113 0 1.199.501 2.135.523.916 1.395 1.438.893.502 2.004.502zM506.11 372.687q-1.874 0-1.874 2.026v1.003h3.355v1.72h-3.312v9.827h-2.092v-9.826h-1.96v-1.721h1.96v-1.025q0-1.72 1.003-2.723 1.002-1.002 2.81-1.002.698 0 1.308.174.61.174 1.045.501l-.631 1.59q-.72-.544-1.613-.544zM521.557 375.607q1.677 0 3.006.74 1.33.741 2.07 2.07.763 1.33.763 3.072 0 1.743-.763 3.094-.74 1.33-2.07 2.07-1.329.74-3.006.74-1.242 0-2.288-.479-1.024-.479-1.743-1.394v5.97h-2.092v-15.774h2.005v1.83q.697-.959 1.765-1.438 1.067-.501 2.353-.501zm-.175 9.957q1.112 0 1.983-.502.893-.522 1.395-1.438.522-.936.522-2.135 0-1.198-.522-2.113-.502-.937-1.395-1.438-.871-.501-1.983-.501-1.089 0-1.982.523-.872.5-1.395 1.416-.5.915-.5 2.113 0 1.199.5 2.135.501.916 1.395 1.438.893.502 1.982.502zM534.39 375.607q2.396 0 3.66 1.176 1.286 1.177 1.286 3.508v6.972h-1.983v-1.525q-.523.806-1.503 1.242-.96.414-2.288.414-1.94 0-3.116-.937-1.155-.937-1.155-2.462 0-1.525 1.112-2.44 1.11-.937 3.53-.937h3.311v-.414q0-1.351-.784-2.07-.785-.719-2.31-.719-1.024 0-2.004.349-.98.326-1.656.893l-.872-1.569q.894-.719 2.135-1.09 1.242-.391 2.637-.391zm-.48 10.174q1.199 0 2.07-.522.872-.545 1.264-1.526v-1.612h-3.225q-2.658 0-2.658 1.787 0 .871.676 1.372.675.501 1.873.501zM554.326 375.716v9.978q0 3.029-1.504 4.467-1.503 1.46-4.488 1.46-1.634 0-3.116-.458-1.481-.436-2.396-1.264l1.002-1.612q.806.697 1.983 1.09 1.198.413 2.462.413 2.026 0 2.984-.958.98-.959.98-2.92v-.915q-.74.893-1.83 1.351-1.067.436-2.33.436-1.656 0-3.007-.697-1.33-.72-2.092-1.983-.762-1.286-.762-2.92t.762-2.898q.763-1.285 2.092-1.982 1.35-.697 3.006-.697 1.308 0 2.419.479 1.133.48 1.852 1.416v-1.786zm-6.014 9.238q1.133 0 2.026-.48.915-.48 1.417-1.329.522-.871.522-1.96 0-1.678-1.11-2.702-1.112-1.046-2.855-1.046-1.765 0-2.876 1.046-1.111 1.024-1.111 2.701 0 1.09.501 1.961.523.85 1.416 1.33.915.479 2.07.479zM568.749 381.555q0 .24-.044.631h-9.368q.196 1.526 1.329 2.463 1.154.915 2.854.915 2.07 0 3.333-1.395l1.155 1.351q-.784.915-1.96 1.394-1.155.48-2.593.48-1.83 0-3.247-.741-1.416-.763-2.2-2.113-.763-1.351-.763-3.05 0-1.678.74-3.03.763-1.35 2.07-2.09 1.33-.763 2.986-.763 1.655 0 2.941.762 1.307.74 2.026 2.092.741 1.35.741 3.094zm-5.708-4.184q-1.504 0-2.528.915-1.002.916-1.176 2.397h7.408q-.175-1.46-1.199-2.375-1.002-.937-2.505-.937z"/></g><path d="M429.257 440.79v-21.557h140.799v21.556" fill="none" stroke="#199d4a" stroke-width="1.999" stroke-linecap="round" stroke-linejoin="round"/><g fill="none" stroke="#de4c36" stroke-width="1.999" stroke-linecap="round" stroke-linejoin="round"><path d="M17.856 476.44v21.557h97.017v-21.556"/><g transform="translate(-32.487 26.183)"><path d="M98.852 472.714v12.13"/><circle r="2.839" cy="487.775" cx="98.852" stroke-dashoffset="72"/></g></g><g fill="none" stroke="#9340a4" stroke-width="1.999" stroke-linecap="round" stroke-linejoin="round"><path d="M145.952 440.79v-21.557h159.682v21.556"/><g transform="translate(-32.487 26.183)"><path d="M258.28 392.153v-12.131"/><circle transform="scale(1 -1)" cx="258.28" cy="-377.092" r="2.839" stroke-dashoffset="72"/></g></g><g fill="none" stroke="#b91d5e" stroke-width="1.999" stroke-linecap="round" stroke-linejoin="round"><path d="M315.56 476.44v21.557h103.26v-21.556"/><g transform="translate(-.487 26.183)"><path d="M367.676 472.714v12.13"/><circle cx="367.677" cy="487.775" r="2.839" stroke-dashoffset="72"/></g></g><g transform="translate(-38.887 26.183)" fill="none" stroke="#199d4a" stroke-width="1.999" stroke-linecap="round" stroke-linejoin="round"><path d="M538.543 392.153v-12.131"/><circle cx="538.543" cy="-377.092" r="2.839" transform="scale(1 -1)" stroke-dashoffset="72"/></g></g></svg>