<svg xmlns="http://www.w3.org/2000/svg" viewBox="0 0 218.697 59.883" height="226.328" width="826.571"><path fill="#fff" d="M0 0h218.697v59.883H0z"/><path d="M4.975 32.648L3.91 31.236l-1.078 1.412h-.744l1.454-1.886-1.385-1.801h.745l1.015 1.328 1.01-1.328h.73l-1.392 1.801 1.468 1.886zM7.104 29.58q.174-.32.514-.487.341-.167.828-.167v.647q-.055-.007-.153-.007-.542 0-.855.327-.307.32-.307.918v1.837h-.667V28.96h.64zM12.565 30.825q0 .077-.014.202H9.559q.063.487.425.786.368.292.911.292.661 0 1.065-.445l.368.431q-.25.292-.626.445-.369.154-.828.154-.584 0-1.036-.237-.453-.244-.703-.675-.243-.431-.243-.974 0-.535.236-.967.244-.431.661-.668.424-.243.953-.243.529 0 .94.243.417.237.646.668.237.432.237.988zm-1.823-1.336q-.48 0-.807.293-.32.292-.376.765h2.366q-.056-.466-.383-.758-.32-.3-.8-.3zM14.84 27.994q-.599 0-.599.647v.32h1.072v.55h-1.058v3.137h-.668V29.51h-.626v-.55h.626v-.326q0-.55.32-.87.32-.32.898-.32.222 0 .417.056.195.055.334.16l-.202.508q-.23-.174-.514-.174zM16.259 29.879q-.195 0-.334-.132-.14-.14-.14-.348 0-.202.14-.334.139-.14.334-.14t.327.133q.132.132.132.34 0 .21-.14.349-.131.132-.32.132zm0 2.81q-.195 0-.334-.132-.14-.139-.14-.348 0-.201.14-.333.139-.14.334-.14t.327.133q.132.132.132.34 0 .21-.14.348-.131.133-.32.133z" style="line-height:0%;-inkscape-font-specification:'Montserrat Medium, Medium';font-variant-ligatures:normal;font-variant-caps:normal;font-variant-numeric:normal;font-feature-settings:normal;text-align:center" font-weight="500" font-size="6.957" font-family="Montserrat Medium" letter-spacing="0" word-spacing="0" text-anchor="middle" fill="#d62279"/><path d="M20.94 28.96l-1.613 3.688h-.682l-1.614-3.687h.696l1.266 2.956 1.294-2.956zM24.795 30.825q0 .077-.014.202H21.79q.062.487.424.786.369.292.911.292.661 0 1.065-.445l.368.431q-.25.292-.626.445-.368.154-.828.154-.584 0-1.036-.237-.452-.244-.703-.675-.243-.431-.243-.974 0-.535.236-.967.244-.431.661-.668.424-.243.953-.243.529 0 .94.243.417.237.646.668.237.432.237.988zm-1.823-1.336q-.48 0-.807.293-.32.292-.375.765h2.365q-.056-.466-.383-.758-.32-.3-.8-.3zM26.36 29.58q.174-.32.515-.487.34-.167.828-.167v.647q-.056-.007-.153-.007-.543 0-.856.327-.306.32-.306.918v1.837h-.668V28.96h.64zM29.609 32.69q-.452 0-.87-.119-.417-.125-.654-.313l.279-.529q.243.174.591.279.348.104.703.104.876 0 .876-.5 0-.168-.118-.265-.118-.098-.3-.14-.173-.048-.5-.104-.445-.07-.73-.16-.279-.09-.48-.306-.202-.215-.202-.605 0-.5.417-.8.418-.306 1.12-.306.369 0 .738.09.368.09.605.244l-.285.529q-.453-.293-1.065-.293-.424 0-.647.14-.222.139-.222.368 0 .181.125.285.125.105.306.153.188.05.522.112.445.076.716.167.279.083.473.292.195.209.195.584 0 .501-.431.8-.425.293-1.162.293zM32.037 28.96h.668v3.688h-.668zm.334-.709q-.195 0-.327-.125-.125-.125-.125-.306t.125-.306q.132-.133.327-.133t.32.126q.132.118.132.299 0 .188-.132.32-.125.125-.32.125zM35.557 32.69q-.55 0-.988-.244-.438-.243-.688-.668-.244-.431-.244-.974 0-.542.244-.967.25-.431.688-.668.439-.243.988-.243.55 0 .981.243.438.237.682.668.25.425.25.967 0 .543-.25.974-.244.425-.682.668-.431.244-.98.244zm0-.585q.355 0 .633-.16.285-.167.445-.459.16-.3.16-.682 0-.382-.16-.675-.16-.299-.445-.459-.278-.16-.633-.16t-.64.16q-.278.16-.445.46-.16.292-.16.674 0 .383.16.682.167.292.445.46.285.16.64.16zM40.364 28.926q.703 0 1.113.41.418.404.418 1.19v2.122h-.668v-2.046q0-.535-.257-.807-.258-.27-.738-.27-.542 0-.856.32-.313.312-.313.904v1.899h-.667V28.96h.64v.556q.201-.285.542-.438.348-.153.786-.153zM46.118 27.73q.939 0 1.676.389.738.382 1.148 1.078.418.696.418 1.586 0 .89-.327 1.399-.327.508-.912.508-.334 0-.556-.167-.216-.174-.279-.494-.208.32-.55.494-.333.167-.771.167-.487 0-.877-.23t-.612-.633q-.216-.41-.216-.925 0-.508.216-.912.222-.41.612-.633.39-.23.877-.23.403 0 .73.154.327.146.543.438v-.564h.605v2.505q0 .257.111.383.112.118.286.118.306 0 .473-.355.173-.362.173-1.016 0-.772-.347-1.356-.348-.592-.981-.919-.626-.327-1.44-.327-.821 0-1.454.341-.626.341-.974.953-.348.613-.348 1.399 0 .793.34 1.405.349.612.968.953.626.348 1.44.348.34 0 .696-.077.354-.076.647-.23l.153.446q-.307.16-.71.244-.404.083-.786.083-.953 0-1.698-.41-.737-.404-1.148-1.127-.41-.724-.41-1.635 0-.912.41-1.628.418-.717 1.162-1.12.752-.404 1.712-.404zm-.056 4.417q.34 0 .605-.153.272-.153.425-.431.16-.286.16-.661 0-.376-.16-.654-.153-.286-.425-.432-.264-.153-.605-.153-.529 0-.856.341-.327.334-.327.898 0 .563.327.904.334.34.856.34zM51.934 32.69q-.564 0-1.01-.244-.437-.243-.688-.668-.25-.431-.25-.974 0-.542.25-.967.25-.431.689-.668.445-.243 1.009-.243.5 0 .89.202.397.201.612.584l-.508.327q-.173-.264-.43-.397-.258-.132-.571-.132-.362 0-.654.16-.286.16-.453.46-.16.292-.16.674 0 .39.16.689.167.292.453.452.292.16.654.16.313 0 .57-.132.258-.132.431-.397l.508.32q-.215.383-.612.592-.39.202-.89.202zM55.822 32.69q-.55 0-.987-.244-.439-.243-.69-.668-.243-.431-.243-.974 0-.542.244-.967.25-.431.689-.668.438-.243.987-.243.55 0 .981.243.439.237.682.668.25.425.25.967 0 .543-.25.974-.243.425-.682.668-.43.244-.98.244zm0-.585q.355 0 .634-.16.285-.167.445-.459.16-.3.16-.682 0-.382-.16-.675-.16-.299-.445-.459-.279-.16-.634-.16-.354 0-.64.16-.278.16-.445.46-.16.292-.16.674 0 .383.16.682.167.292.445.46.286.16.64.16zM63.273 28.926q.696 0 1.1.403.41.404.41 1.197v2.122h-.668v-2.046q0-.535-.25-.807-.244-.27-.703-.27-.508 0-.807.32-.3.312-.3.904v1.899h-.667v-2.046q0-.535-.25-.807-.244-.27-.703-.27-.508 0-.807.32-.3.312-.3.904v1.899h-.667V28.96h.64v.55q.202-.286.529-.432.327-.153.744-.153.431 0 .765.174t.515.508q.209-.32.577-.501.376-.181.842-.181zM67.97 28.926q.535 0 .96.236.424.237.66.661.244.425.244.981 0 .557-.244.988-.236.424-.66.661-.425.237-.96.237-.397 0-.731-.154-.327-.153-.557-.445v1.906h-.668v-5.036h.64v.584q.223-.306.564-.46.34-.16.751-.16zm-.057 3.18q.355 0 .634-.16.285-.168.445-.46.167-.3.167-.682 0-.382-.167-.675-.16-.299-.445-.459-.279-.16-.634-.16-.347 0-.633.167-.278.16-.445.452-.16.293-.16.675 0 .383.16.682.16.292.445.46.286.16.633.16zM72.338 32.69q-.55 0-.988-.244-.438-.243-.689-.668-.243-.431-.243-.974 0-.542.243-.967.25-.431.69-.668.437-.243.987-.243t.981.243q.438.237.682.668.25.425.25.967 0 .543-.25.974-.244.425-.682.668-.431.244-.98.244zm0-.585q.355 0 .633-.16.285-.167.445-.459.16-.3.16-.682 0-.382-.16-.675-.16-.299-.445-.459-.278-.16-.633-.16t-.64.16q-.278.16-.445.46-.16.292-.16.674 0 .383.16.682.167.292.445.46.285.16.64.16zM77.145 28.926q.703 0 1.113.41.418.404.418 1.19v2.122h-.668v-2.046q0-.535-.258-.807-.257-.27-.737-.27-.543 0-.856.32-.313.312-.313.904v1.899h-.668V28.96h.64v.556q.202-.285.543-.438.348-.153.786-.153zM83.267 30.825q0 .077-.014.202h-2.991q.063.487.424.786.369.292.912.292.66 0 1.064-.445l.369.431q-.25.292-.626.445-.37.154-.828.154-.585 0-1.037-.237-.452-.244-.702-.675-.244-.431-.244-.974 0-.535.237-.967.243-.431.66-.668.425-.243.954-.243.528 0 .939.243.417.237.647.668.236.432.236.988zm-1.822-1.336q-.48 0-.807.293-.32.292-.376.765h2.365q-.055-.466-.382-.758-.32-.3-.8-.3zM86.161 28.926q.703 0 1.113.41.418.404.418 1.19v2.122h-.668v-2.046q0-.535-.257-.807-.258-.27-.738-.27-.542 0-.856.32-.313.312-.313.904v1.899h-.667V28.96h.64v.556q.201-.285.542-.438.348-.153.786-.153zM91.003 32.432q-.146.125-.361.195-.216.063-.446.063-.556 0-.862-.3-.306-.299-.306-.855V29.51H88.4v-.55h.627v-.806h.667v.807h1.058v.55h-1.058v1.996q0 .299.147.459.153.16.43.16.307 0 .523-.174zM91.97 29.879q-.194 0-.334-.132-.139-.14-.139-.348 0-.202.14-.334.139-.14.333-.14.195 0 .327.133.132.132.132.34 0 .21-.139.349-.132.132-.32.132zm0 2.81q-.194 0-.334-.132-.139-.139-.139-.348 0-.201.14-.333.139-.14.333-.14.195 0 .327.133.132.132.132.34 0 .21-.139.348-.132.133-.32.133zM98.002 28.926q.696 0 1.1.403.41.404.41 1.197v2.122h-.668v-2.046q0-.535-.25-.807-.244-.27-.703-.27-.508 0-.807.32-.3.312-.3.904v1.899h-.667v-2.046q0-.535-.25-.807-.244-.27-.703-.27-.508 0-.807.32-.3.312-.3.904v1.899h-.667V28.96h.64v.55q.201-.286.528-.432.327-.153.745-.153.431 0 .765.174t.515.508q.208-.32.577-.501.376-.181.842-.181zM102.343 32.69q-.55 0-.988-.244-.438-.243-.689-.668-.243-.431-.243-.974 0-.542.243-.967.25-.431.69-.668.437-.243.987-.243t.98.243q.44.237.683.668.25.425.25.967 0 .543-.25.974-.244.425-.682.668-.431.244-.981.244zm0-.585q.355 0 .633-.16.285-.167.445-.459.16-.3.16-.682 0-.382-.16-.675-.16-.299-.445-.459-.278-.16-.633-.16t-.64.16q-.278.16-.445.46-.16.292-.16.674 0 .383.16.682.167.292.445.46.285.16.64.16zM108.66 27.486v5.162h-.64v-.585q-.223.306-.564.467-.34.16-.751.16-.536 0-.96-.237-.424-.237-.668-.66-.237-.432-.237-.989 0-.556.237-.98.244-.425.668-.662.424-.236.96-.236.396 0 .73.153.334.146.557.438v-2.031zm-1.9 4.62q.348 0 .634-.16.285-.168.445-.46.16-.3.16-.682 0-.382-.16-.675-.16-.299-.445-.459-.286-.16-.633-.16-.355 0-.64.16-.279.16-.446.46-.16.292-.16.674 0 .383.16.682.167.292.446.46.285.16.64.16zM113.363 28.96v3.688h-.633v-.557q-.202.285-.536.445-.327.154-.717.154-.737 0-1.161-.404-.425-.41-.425-1.204v-2.121h.668v2.045q0 .536.257.814.258.271.738.271.529 0 .835-.32.306-.32.306-.904V28.96zM114.636 27.486h.668v5.162h-.668zM119.91 30.825q0 .077-.015.202h-2.991q.062.487.424.786.369.292.911.292.661 0 1.065-.445l.369.431q-.25.292-.627.445-.368.154-.827.154-.585 0-1.037-.237-.452-.244-.703-.675-.243-.431-.243-.974 0-.535.236-.967.244-.431.661-.668.425-.243.953-.243.53 0 .94.243.417.237.647.668.236.432.236.988zm-1.824-1.336q-.48 0-.807.293-.32.292-.375.765h2.365q-.056-.466-.383-.758-.32-.3-.8-.3zM120.994 29.879q-.194 0-.334-.132-.139-.14-.139-.348 0-.202.14-.334.139-.14.333-.14.195 0 .327.133.132.132.132.34 0 .21-.139.349-.132.132-.32.132zm0 2.81q-.194 0-.334-.132-.139-.139-.139-.348 0-.201.14-.333.139-.14.333-.14.195 0 .327.133.132.132.132.34 0 .21-.139.348-.132.133-.32.133zM124.368 28.926q.536 0 .96.236.425.237.661.661.244.425.244.981 0 .557-.244.988-.236.424-.66.661-.425.237-.96.237-.397 0-.731-.154-.327-.153-.557-.445v1.906h-.667v-5.036h.64v.584q.222-.306.563-.46.34-.16.751-.16zm-.055 3.18q.354 0 .633-.16.285-.168.445-.46.167-.3.167-.682 0-.382-.167-.675-.16-.299-.445-.459-.279-.16-.633-.16-.348 0-.633.167-.279.16-.446.452-.16.293-.16.675 0 .383.16.682.16.292.446.46.285.16.633.16zM128.466 28.926q.765 0 1.169.376.41.375.41 1.12v2.226h-.633v-.487q-.167.257-.48.396-.306.133-.73.133-.62 0-.995-.3-.369-.299-.369-.786 0-.487.355-.779.355-.3 1.127-.3h1.057v-.131q0-.432-.25-.661-.25-.23-.738-.23-.327 0-.64.112-.313.104-.528.285l-.279-.501q.286-.23.682-.348.397-.125.842-.125zm-.153 3.249q.383 0 .66-.167.28-.174.404-.487v-.515h-1.03q-.848 0-.848.57 0 .279.216.439.215.16.598.16zM134.832 28.96v3.187q0 .967-.48 1.426-.48.466-1.434.466-.521 0-.994-.146-.474-.14-.766-.403l.32-.515q.258.222.633.348.383.132.787.132.646 0 .953-.306.313-.306.313-.933v-.292q-.237.285-.585.432-.34.139-.744.139-.529 0-.96-.223-.425-.23-.668-.633-.244-.41-.244-.932t.244-.925q.243-.41.668-.634.431-.222.96-.222.417 0 .772.153.362.153.591.452v-.57zm-1.92 2.95q.361 0 .646-.153.293-.153.453-.424.167-.278.167-.626 0-.536-.355-.863-.355-.334-.912-.334-.563 0-.918.334-.355.327-.355.863 0 .348.16.626.167.271.453.424.292.153.66.153zM139.437 30.825q0 .077-.014.202h-2.991q.062.487.424.786.369.292.911.292.661 0 1.065-.445l.368.431q-.25.292-.626.445-.368.154-.828.154-.584 0-1.036-.237-.452-.244-.703-.675-.243-.431-.243-.974 0-.535.236-.967.244-.431.661-.668.425-.243.953-.243.529 0 .94.243.417.237.646.668.237.432.237.988zm-1.823-1.336q-.48 0-.807.293-.32.292-.375.765h2.365q-.056-.466-.383-.758-.32-.3-.8-.3zM140.522 32.69q-.195 0-.334-.133-.139-.139-.139-.348 0-.201.14-.333.138-.14.333-.14t.327.133q.132.132.132.34 0 .21-.139.348-.132.133-.32.133zM143.354 28.926q.765 0 1.168.376.41.375.41 1.12v2.226h-.632v-.487q-.167.257-.48.396-.306.133-.73.133-.62 0-.996-.3-.368-.299-.368-.786 0-.487.355-.779.354-.3 1.127-.3h1.057v-.131q0-.432-.25-.661-.25-.23-.738-.23-.327 0-.64.112-.313.104-.529.285l-.278-.501q.285-.23.682-.348.396-.125.842-.125zm-.153 3.249q.382 0 .66-.167.279-.174.404-.487v-.515h-1.03q-.848 0-.848.57 0 .279.215.439.216.16.599.16zM149.67 27.486v5.162h-.64v-.585q-.222.306-.563.467-.341.16-.751.16-.536 0-.96-.237-.425-.237-.668-.66-.237-.432-.237-.989 0-.556.237-.98.243-.425.668-.662.424-.236.96-.236.396 0 .73.153.334.146.557.438v-2.031zm-1.899 4.62q.348 0 .633-.16.286-.168.446-.46.16-.3.16-.682 0-.382-.16-.675-.16-.299-.446-.459-.285-.16-.633-.16-.355 0-.64.16-.278.16-.445.46-.16.292-.16.674 0 .383.16.682.167.292.445.46.285.16.64.16zM152.516 32.69q-.55 0-.988-.244-.438-.243-.689-.668-.243-.431-.243-.974 0-.542.243-.967.25-.431.689-.668.438-.243.988-.243t.98.243q.439.237.683.668.25.425.25.967 0 .543-.25.974-.244.425-.682.668-.432.244-.981.244zm0-.585q.355 0 .633-.16.285-.167.445-.459.16-.3.16-.682 0-.382-.16-.675-.16-.299-.445-.459-.278-.16-.633-.16t-.64.16q-.278.16-.445.46-.16.292-.16.674 0 .383.16.682.167.292.445.46.285.16.64.16zM156.961 32.69q-.563 0-1.008-.244-.439-.243-.69-.668-.25-.431-.25-.974 0-.542.25-.967.251-.431.69-.668.445-.243 1.008-.243.501 0 .89.202.397.201.613.584l-.508.327q-.174-.264-.431-.397-.258-.132-.57-.132-.362 0-.655.16-.285.16-.452.46-.16.292-.16.674 0 .39.16.689.167.292.452.452.293.16.654.16.313 0 .57-.132.258-.132.432-.397l.508.32q-.216.383-.612.592-.39.202-.89.202zM162.374 29.538l-.167 1.35h.967v.508h-1.03l-.153 1.252h-.494l.153-1.252h-1.315l-.153 1.252h-.494l.153-1.252h-.96v-.508h1.023l.174-1.35h-.974v-.508h1.037l.153-1.252h.494l-.154 1.252h1.308l.153-1.252h.494l-.153 1.252h.96v.508zm-.494 0h-1.308l-.174 1.35h1.315zM165.567 27.994q-.598 0-.598.647v.32h1.071v.55h-1.057v3.137h-.668V29.51h-.626v-.55h.626v-.326q0-.55.32-.87.32-.32.897-.32.223 0 .418.056.194.055.333.16l-.201.508q-.23-.174-.515-.174zM167.87 29.58q.174-.32.514-.487.341-.167.828-.167v.647q-.055-.007-.153-.007-.542 0-.855.327-.307.32-.307.918v1.837h-.667V28.96h.64zM171.369 28.926q.765 0 1.169.376.41.375.41 1.12v2.226h-.633v-.487q-.167.257-.48.396-.306.133-.73.133-.62 0-.995-.3-.369-.299-.369-.786 0-.487.355-.779.355-.3 1.127-.3h1.057v-.131q0-.432-.25-.661-.25-.23-.738-.23-.327 0-.64.112-.313.104-.528.285l-.279-.501q.286-.23.682-.348.397-.125.842-.125zm-.153 3.249q.382 0 .66-.167.279-.174.404-.487v-.515h-1.03q-.848 0-.848.57 0 .279.216.439.215.16.598.16zM177.734 28.96v3.187q0 .967-.48 1.426-.48.466-1.433.466-.521 0-.995-.146-.473-.14-.765-.403l.32-.515q.258.222.633.348.383.132.786.132.647 0 .953-.306.314-.306.314-.933v-.292q-.237.285-.585.432-.34.139-.744.139-.529 0-.96-.223-.425-.23-.668-.633-.244-.41-.244-.932t.244-.925q.243-.41.668-.634.431-.222.96-.222.417 0 .772.153.362.153.591.452v-.57zm-1.92 2.95q.362 0 .647-.153.293-.153.453-.424.166-.278.166-.626 0-.536-.354-.863-.355-.334-.912-.334-.563 0-.918.334-.355.327-.355.863 0 .348.16.626.167.271.452.424.293.153.661.153zM183.62 28.926q.696 0 1.1.403.41.404.41 1.197v2.122h-.668v-2.046q0-.535-.25-.807-.244-.27-.703-.27-.508 0-.807.32-.3.312-.3.904v1.899h-.667v-2.046q0-.535-.25-.807-.244-.27-.703-.27-.508 0-.807.32-.3.312-.3.904v1.899h-.667V28.96h.64v.55q.201-.286.528-.432.327-.153.745-.153.431 0 .765.174t.515.508q.208-.32.577-.501.376-.181.842-.181zM189.714 30.825q0 .077-.014.202h-2.991q.062.487.424.786.369.292.911.292.661 0 1.065-.445l.369.431q-.25.292-.627.445-.368.154-.827.154-.585 0-1.037-.237-.452-.244-.703-.675-.243-.431-.243-.974 0-.535.236-.967.244-.431.661-.668.425-.243.953-.243.53 0 .94.243.417.237.647.668.236.432.236.988zm-1.823-1.336q-.48 0-.807.293-.32.292-.375.765h2.365q-.056-.466-.383-.758-.32-.3-.8-.3zM192.608 28.926q.703 0 1.113.41.418.404.418 1.19v2.122h-.668v-2.046q0-.535-.258-.807-.257-.27-.737-.27-.543 0-.856.32-.313.312-.313.904v1.899h-.668V28.96h.64v.556q.202-.285.543-.438.348-.153.786-.153zM197.45 32.432q-.146.125-.362.195-.215.063-.445.063-.556 0-.862-.3-.307-.299-.307-.855V29.51h-.626v-.55h.626v-.806h.668v.807h1.058v.55h-1.058v1.996q0 .299.146.459.153.16.432.16.306 0 .521-.174z" style="line-height:0%;-inkscape-font-specification:'Montserrat Medium, Medium';font-variant-ligatures:normal;font-variant-caps:normal;font-variant-numeric:normal;font-feature-settings:normal;text-align:center" font-weight="500" font-size="6.957" font-family="Montserrat Medium" letter-spacing="0" word-spacing="0" text-anchor="middle" fill="#2d2d30"/><path d="M198.355 27.486h1.454v.55h-.787v5.412h.787v.55h-1.454z" style="line-height:0%;-inkscape-font-specification:'Montserrat Medium, Medium';font-variant-ligatures:normal;font-variant-caps:normal;font-variant-numeric:normal;font-feature-settings:normal;text-align:center" font-weight="500" font-size="6.957" font-family="Montserrat Medium" letter-spacing="0" word-spacing="0" text-anchor="middle" fill="#d62279"/><path d="M202.647 32.432q-.146.125-.362.195-.215.063-.445.063-.557 0-.863-.3-.306-.299-.306-.855V29.51h-.626v-.55h.626v-.806h.668v.807h1.057v.55h-1.057v1.996q0 .299.146.459.153.16.431.16.307 0 .522-.174zM206.661 30.825q0 .077-.014.202h-2.991q.062.487.424.786.369.292.911.292.661 0 1.065-.445l.369.431q-.25.292-.627.445-.368.154-.827.154-.585 0-1.037-.237-.452-.244-.703-.675-.243-.431-.243-.974 0-.535.236-.967.244-.431.661-.668.425-.243.953-.243.53 0 .94.243.417.237.647.668.236.432.236.988zm-1.823-1.336q-.48 0-.807.293-.32.292-.375.765h2.365q-.056-.466-.383-.758-.32-.3-.8-.3zM209.833 32.648l-1.064-1.412-1.078 1.412h-.745l1.454-1.886-1.384-1.801h.744l1.016 1.328 1.009-1.328h.73l-1.391 1.801 1.468 1.886zM213.395 32.432q-.146.125-.362.195-.215.063-.445.063-.556 0-.862-.3-.306-.299-.306-.855V29.51h-.627v-.55h.627v-.806h.667v.807h1.058v.55h-1.058v1.996q0 .299.146.459.154.16.432.16.306 0 .522-.174z" style="line-height:0%;-inkscape-font-specification:'Montserrat Medium, Medium';font-variant-ligatures:normal;font-variant-caps:normal;font-variant-numeric:normal;font-feature-settings:normal;text-align:center" font-weight="500" font-size="6.957" font-family="Montserrat Medium" letter-spacing="0" word-spacing="0" text-anchor="middle" fill="#1982c4"/><path d="M213.701 33.997v-.55h.786v-5.412h-.786v-.55h1.454v6.512z" style="line-height:0%;-inkscape-font-specification:'Montserrat Medium, Medium';font-variant-ligatures:normal;font-variant-caps:normal;font-variant-numeric:normal;font-feature-settings:normal;text-align:center" font-weight="500" font-size="6.957" font-family="Montserrat Medium" letter-spacing="0" word-spacing="0" text-anchor="middle" fill="#d62279"/><path d="M69.37 51.903q-.116.1-.289.155-.172.05-.356.05-.445 0-.69-.239-.245-.24-.245-.684v-1.62h-.5v-.44h.5v-.645h.535v.645h.845v.44h-.845v1.597q0 .24.116.368.123.128.345.128.245 0 .418-.14zM71.09 49.098q.613 0 .936.3.328.3.328.896v1.781h-.507v-.39q-.133.206-.384.318-.244.105-.584.105-.495 0-.796-.239-.295-.24-.295-.629 0-.39.284-.623.284-.24.902-.24h.846v-.105q0-.345-.2-.529-.201-.184-.59-.184-.262 0-.513.09-.25.083-.423.228l-.222-.401q.228-.184.545-.278.317-.1.674-.1zm-.122 2.599q.306 0 .529-.134.222-.14.323-.39v-.411h-.824q-.679 0-.679.456 0 .223.172.35.173.129.48.129zM73.857 49.62q.139-.255.411-.389.273-.133.663-.133v.517q-.045-.006-.123-.006-.434 0-.684.262-.245.256-.245.735v1.469h-.534v-2.95h.512zM78.381 49.125v2.55q0 .773-.384 1.14-.384.373-1.146.373-.418 0-.796-.117-.378-.111-.612-.323l.256-.411q.206.178.506.278.306.106.63.106.517 0 .762-.245.25-.245.25-.746v-.234q-.19.228-.467.345-.273.112-.596.112-.423 0-.768-.178-.34-.184-.534-.507-.195-.328-.195-.746 0-.417.195-.74.195-.328.534-.506.345-.178.768-.178.334 0 .618.122.29.122.473.362v-.457zm-1.536 2.36q.29 0 .518-.122.234-.123.362-.34.133-.222.133-.5 0-.43-.284-.69-.283-.268-.729-.268-.45 0-.734.267-.284.262-.284.69 0 .279.128.501.133.217.362.34.233.122.528.122zM82.066 50.617q0 .061-.011.161H79.66q.05.39.34.63.295.233.729.233.529 0 .852-.356l.295.345q-.2.234-.501.356-.295.122-.663.122-.467 0-.829-.189-.362-.195-.562-.54-.195-.345-.195-.779 0-.428.19-.773.194-.345.528-.535.34-.194.763-.194t.75.194q.335.19.519.535.189.345.189.79zm-1.458-1.069q-.384 0-.646.234-.256.234-.3.612h1.892q-.045-.373-.306-.606-.256-.24-.64-.24zM84.464 51.903q-.116.1-.289.155-.172.05-.356.05-.445 0-.69-.239-.245-.24-.245-.684v-1.62h-.501v-.44h.5v-.645h.535v.645h.846v.44h-.846v1.597q0 .24.117.368.122.128.345.128.245 0 .417-.14zM88.171 49.098q.429 0 .768.189.34.189.529.528.195.34.195.785t-.195.79q-.19.34-.529.53-.34.188-.768.188-.317 0-.584-.122-.262-.122-.446-.356v1.525h-.534v-4.03h.512v.468q.178-.245.451-.367.273-.128.601-.128zm-.044 2.543q.283 0 .506-.128.228-.134.356-.367.134-.24.134-.546 0-.306-.134-.54-.128-.239-.356-.367-.223-.128-.506-.128-.279 0-.507.134-.223.128-.356.361-.128.234-.128.54 0 .306.128.546.128.233.356.367.228.128.507.128zM91.45 49.098q.611 0 .934.3.328.3.328.896v1.781h-.506v-.39q-.134.206-.384.318-.245.105-.584.105-.496 0-.796-.239-.295-.24-.295-.629 0-.39.284-.623.283-.24.901-.24h.846v-.105q0-.345-.2-.529-.2-.184-.59-.184-.262 0-.512.09-.25.083-.423.228l-.223-.401q.228-.184.546-.278.317-.1.673-.1zm-.123 2.599q.306 0 .528-.134.223-.14.323-.39v-.411h-.823q-.68 0-.68.456 0 .223.173.35.173.129.479.129zM96.542 49.125v2.55q0 .773-.384 1.14-.384.373-1.147.373-.417 0-.796-.117-.378-.111-.612-.323l.256-.411q.206.178.506.278.307.106.63.106.517 0 .762-.245.25-.245.25-.746v-.234q-.189.228-.467.345-.273.112-.596.112-.423 0-.768-.178-.34-.184-.534-.507-.195-.328-.195-.746 0-.417.195-.74.195-.328.534-.506.345-.178.768-.178.334 0 .618.122.29.122.473.362v-.457zm-1.537 2.36q.29 0 .518-.122.234-.123.362-.34.133-.222.133-.5 0-.43-.283-.69-.284-.268-.73-.268-.45 0-.734.267-.284.262-.284.69 0 .279.128.501.134.217.362.34.233.122.528.122zM100.226 50.617q0 .061-.011.161h-2.393q.05.39.34.63.294.233.728.233.529 0 .852-.356l.295.345q-.2.234-.501.356-.295.122-.662.122-.468 0-.83-.189-.362-.195-.562-.54-.195-.345-.195-.779 0-.428.19-.773.194-.345.528-.535.34-.194.763-.194t.751.194q.334.19.518.535.189.345.189.79zm-1.458-1.069q-.384 0-.646.234-.256.234-.3.612h1.892q-.045-.373-.306-.606-.256-.24-.64-.24zM102.541 48.18h.557v3.895h-.557zM104.266 48.18h1.642q.618 0 1.097.244.478.245.74.69.267.44.267 1.013t-.267 1.019q-.262.44-.74.684-.479.245-1.097.245h-1.642zm1.609 3.41q.473 0 .83-.183.36-.183.556-.512.194-.334.194-.768t-.194-.762q-.195-.334-.557-.518-.356-.184-.83-.184h-1.051v2.928z" style="line-height:125%;-inkscape-font-specification:'Montserrat Medium, Medium';font-variant-ligatures:normal;font-variant-caps:normal;font-variant-numeric:normal;font-feature-settings:normal;text-align:center" font-weight="500" font-size="5.565" font-family="Montserrat Medium" letter-spacing="0" word-spacing="0" text-anchor="middle" fill="#2d2d30"/><g transform="translate(341.144 1.379)" fill="none" stroke="#2d2d30" stroke-linecap="round" stroke-linejoin="round"><path d="M-253.494 39.567v3.099" stroke-width=".52159929"/><circle r=".725" cy="43.414" cx="-253.494" stroke-width=".522" stroke-dashoffset="72"/></g><path d="M17.044 35.205v5.506h141.213v-5.506" fill="none" stroke="#2d2d30" stroke-width=".522" stroke-linecap="round" stroke-linejoin="round"/><path d="M6.13 4.713l-.852-1.13-.863 1.13H3.82l1.163-1.508-1.108-1.442h.596l.813 1.063.807-1.063h.584L5.562 3.205l1.174 1.508zM7.833 2.259q.139-.256.411-.39.273-.133.663-.133v.517q-.045-.005-.123-.005-.434 0-.684.261-.245.256-.245.735v1.47H7.32v-2.95h.513zM12.201 3.255q0 .061-.01.161H9.796q.05.39.34.63.295.233.729.233.528 0 .851-.356l.295.345q-.2.234-.5.356-.296.122-.663.122-.467 0-.83-.189-.361-.195-.561-.54-.195-.345-.195-.779 0-.428.19-.773.194-.345.528-.535.34-.194.762-.194.423 0 .752.194.334.19.517.535.19.345.19.79zm-1.458-1.069q-.384 0-.645.234-.256.234-.3.612h1.891q-.044-.373-.306-.606-.256-.24-.64-.24zM14.021.99q-.478 0-.478.517v.256h.857v.44h-.846v2.51h-.534v-2.51h-.501v-.44h.5v-.261q0-.44.257-.696.256-.256.718-.256.178 0 .333.045.156.044.268.128l-.162.406q-.183-.14-.412-.14zM4.19 8.692q.556 0 .88.323.328.323.328.957v1.698h-.535v-1.636q0-.429-.2-.646-.195-.217-.562-.217-.406 0-.646.256-.239.25-.239.724v1.519h-.534v-1.636q0-.429-.2-.646-.195-.217-.563-.217-.406 0-.645.256-.24.25-.24.724v1.519H.5V8.72h.512v.44q.161-.228.423-.345.262-.123.596-.123.345 0 .612.14.267.139.412.406.167-.256.461-.4.301-.146.674-.146zM7.457 8.692q.612 0 .935.3.328.301.328.897v1.781h-.506v-.39q-.134.206-.384.318-.245.105-.585.105-.495 0-.795-.239-.295-.24-.295-.629 0-.39.283-.623.284-.24.902-.24h.846v-.105q0-.345-.2-.529-.2-.184-.59-.184-.262 0-.512.09-.25.083-.423.228l-.223-.401q.228-.184.545-.278.318-.1.674-.1zm-.123 2.6q.307 0 .53-.134.222-.14.322-.39v-.412h-.824q-.679 0-.679.457 0 .222.173.35.172.128.478.128zM11.013 11.703q-.45 0-.807-.194-.35-.195-.55-.535-.201-.345-.201-.779 0-.434.2-.774.2-.345.551-.534.356-.195.807-.195.4 0 .713.162.317.161.49.467l-.407.262q-.14-.212-.345-.317-.206-.106-.456-.106-.29 0-.524.128-.228.128-.361.367-.128.234-.128.54 0 .312.128.551.133.234.361.362.234.128.524.128.25 0 .456-.106.206-.106.345-.317l.406.256q-.172.306-.49.473-.311.161-.712.161zM13.417 9.216q.14-.256.412-.39.273-.134.663-.134v.518q-.045-.006-.123-.006-.434 0-.684.262-.245.256-.245.735v1.469h-.535V8.72h.512zM16.384 11.703q-.44 0-.79-.194-.351-.195-.551-.535-.195-.345-.195-.779 0-.434.195-.774.2-.345.55-.534.351-.195.79-.195.44 0 .786.195.35.19.545.534.2.34.2.774t-.2.78q-.195.339-.545.534-.345.194-.785.194zm0-.467q.284 0 .506-.128.229-.134.357-.367.128-.24.128-.546 0-.306-.128-.54-.128-.24-.357-.367-.222-.128-.506-.128-.284 0-.512.128-.223.128-.356.367-.128.234-.128.54 0 .306.128.546.133.233.356.367.228.128.512.128z" style="line-height:125%;-inkscape-font-specification:'Montserrat Medium, Medium';font-variant-ligatures:normal;font-variant-caps:normal;font-variant-numeric:normal;font-feature-settings:normal;text-align:center" font-weight="500" font-size="5.565" font-family="Montserrat Medium" letter-spacing="0" word-spacing="0" text-anchor="middle" fill="#d62279"/><path d="M2.174 25.787V20.28H16.24v5.507" fill="none" stroke="#d62279" stroke-width=".522" stroke-linecap="round" stroke-linejoin="round"/><g transform="translate(351.233 1.379)" fill="none" stroke="#d62279" stroke-linecap="round" stroke-linejoin="round"><path d="M-342.026 18.55v-3.099" stroke-width=".52159929"/><circle r=".725" cy="-14.703" cx="-342.026" transform="scale(1 -1)" stroke-width=".522" stroke-dashoffset="72"/></g><path d="M197.048 52.426q-.44 0-.79-.195-.35-.195-.551-.534-.195-.345-.195-.78 0-.434.195-.773.2-.345.55-.534.351-.195.791-.195.44 0 .785.195.35.189.545.534.2.34.2.773 0 .435-.2.78-.195.34-.545.534-.345.195-.785.195zm0-.468q.284 0 .506-.128.229-.133.357-.367.128-.24.128-.546 0-.306-.128-.54-.128-.239-.357-.367-.222-.128-.506-.128-.284 0-.512.128-.223.128-.356.368-.128.233-.128.54 0 .306.128.545.133.234.356.367.228.128.512.128zM200.883 49.415q.428 0 .768.189.34.19.528.529.195.34.195.784 0 .446-.195.79-.189.34-.528.53-.34.189-.768.189-.318 0-.585-.123-.261-.122-.445-.356v1.525h-.534v-4.03h.512v.468q.178-.245.45-.367.273-.128.602-.128zm-.045 2.543q.284 0 .507-.128.228-.133.356-.367.133-.24.133-.546 0-.306-.133-.54-.128-.239-.356-.367-.223-.128-.507-.128-.278 0-.506.134-.223.128-.357.362-.128.233-.128.54 0 .306.128.545.128.234.357.367.228.128.506.128zM204.773 52.22q-.117.1-.29.156-.172.05-.356.05-.445 0-.69-.24-.245-.239-.245-.684v-1.62h-.5v-.44h.5v-.645h.535v.646h.846v.44h-.846v1.597q0 .239.116.367.123.128.345.128.245 0 .418-.14zM205.418 49.443h.535v2.95h-.535zm.268-.568q-.156 0-.262-.1-.1-.1-.1-.245t.1-.245q.106-.106.262-.106.155 0 .256.1.105.095.105.24 0 .15-.105.256-.1.1-.256.1zM208.235 52.426q-.44 0-.79-.195-.351-.195-.552-.534-.194-.345-.194-.78 0-.434.194-.773.2-.345.551-.534.35-.195.79-.195.44 0 .785.195.351.189.546.534.2.34.2.773 0 .435-.2.78-.195.34-.546.534-.345.195-.784.195zm0-.468q.283 0 .506-.128.228-.133.356-.367.128-.24.128-.546 0-.306-.128-.54-.128-.239-.356-.367-.223-.128-.506-.128-.284 0-.512.128-.223.128-.357.368-.128.233-.128.54 0 .306.128.545.134.234.357.367.228.128.512.128zM212.08 49.415q.562 0 .89.328.335.323.335.952v1.697h-.535v-1.636q0-.429-.205-.646-.206-.217-.59-.217-.434 0-.685.256-.25.25-.25.724v1.52h-.535v-2.95h.512v.445q.162-.228.434-.35.279-.123.63-.123zM215.37 49.415q.612 0 .935.3.328.3.328.896v1.781h-.507v-.39q-.133.207-.384.318-.244.106-.584.106-.495 0-.796-.24-.295-.239-.295-.629t.284-.623q.284-.24.902-.24h.846v-.105q0-.345-.2-.529-.201-.183-.59-.183-.262 0-.513.089-.25.083-.423.228l-.222-.4q.228-.184.545-.28.317-.1.674-.1zm-.123 2.599q.306 0 .529-.134.222-.139.323-.39v-.411h-.824q-.679 0-.679.456 0 .223.172.35.173.129.48.129zM217.624 48.263h.534v4.13h-.534zM196.119 55.22h.534v4.13h-.534zM197.671 56.4h.535v2.95h-.535zm.267-.568q-.155 0-.261-.1-.1-.1-.1-.245t.1-.245q.106-.106.261-.106.156 0 .256.1.106.095.106.24 0 .15-.106.256-.1.1-.256.1zM200.8 56.372q.561 0 .89.328.334.323.334.952v1.697h-.535v-1.636q0-.429-.206-.646-.206-.217-.59-.217-.434 0-.684.256-.25.25-.25.724v1.52h-.535V56.4h.512v.445q.162-.229.434-.351.278-.122.63-.122zM204.16 57.974l-.612.568v.807h-.534v-4.13h.534v2.65l1.609-1.47h.645l-1.24 1.22 1.363 1.73h-.657zM209.598 59.177q-.117.1-.29.155-.172.05-.355.05-.446 0-.69-.239-.245-.24-.245-.684v-1.62h-.501v-.44h.5v-.645h.535v.645h.846v.44h-.846v1.597q0 .24.117.368.122.128.345.128.245 0 .417-.14zM212.81 57.891q0 .061-.012.161h-2.393q.05.39.34.63.295.233.729.233.528 0 .851-.356l.295.345q-.2.234-.5.356-.296.123-.663.123-.467 0-.83-.19-.361-.194-.561-.54-.195-.345-.195-.779 0-.428.19-.773.194-.345.528-.535.34-.194.762-.194.423 0 .752.194.334.19.517.535.19.345.19.79zm-1.459-1.069q-.384 0-.645.234-.256.234-.3.612h1.891q-.044-.373-.306-.606-.256-.24-.64-.24zM215.347 59.35l-.851-1.13-.863 1.13h-.595l1.163-1.51-1.108-1.44h.596l.812 1.062.807-1.063h.585l-1.113 1.442 1.174 1.508zM218.197 59.177q-.117.1-.29.155-.172.05-.356.05-.445 0-.69-.239-.245-.24-.245-.684v-1.62h-.5v-.44h.5v-.645h.535v.645h.845v.44h-.845v1.597q0 .24.116.368.123.128.345.128.245 0 .418-.14z" style="line-height:125%;-inkscape-font-specification:'Montserrat Medium, Medium';font-variant-ligatures:normal;font-variant-caps:normal;font-variant-numeric:normal;font-feature-settings:normal;text-align:center" font-weight="500" font-size="5.565" font-family="Montserrat Medium" letter-spacing="0" word-spacing="0" text-anchor="middle" fill="#1982c4"/><path d="M199.942 35.205v5.506h13.825v-5.506" fill="none" stroke="#1982c4" stroke-width=".522" stroke-linecap="round" stroke-linejoin="round"/><g transform="matrix(1 0 0 -1 370.454 59.496)" fill="none" stroke="#1982c4" stroke-linecap="round" stroke-linejoin="round"><path d="M-163.6 18.55v-3.099" stroke-width=".52159929"/><circle cx="-163.6" cy="-14.703" r=".725" transform="scale(1 -1)" stroke-width=".522" stroke-dashoffset="72"/></g><path d="M168.473 4.746q-.44 0-.79-.194-.351-.195-.552-.535-.194-.345-.194-.779 0-.434.194-.773.2-.345.551-.535.35-.194.79-.194.44 0 .785.194.351.19.546.535.2.34.2.773 0 .434-.2.78-.195.339-.546.534-.345.194-.784.194zm0-.467q.283 0 .506-.128.228-.134.356-.367.128-.24.128-.546 0-.306-.128-.54-.128-.239-.356-.367-.223-.128-.506-.128-.284 0-.512.128-.223.128-.357.367-.128.234-.128.54 0 .306.128.546.134.233.357.367.228.128.512.128zM172.307 1.736q.429 0 .768.189.34.189.529.528.195.34.195.785t-.195.79q-.19.34-.529.53-.34.188-.768.188-.317 0-.584-.122-.262-.122-.445-.356v1.525h-.535v-4.03h.512v.468q.178-.245.451-.367.273-.128.601-.128zm-.044 2.543q.284 0 .506-.128.228-.134.356-.367.134-.24.134-.546 0-.306-.134-.54-.128-.239-.356-.367-.222-.128-.506-.128-.279 0-.507.134-.222.128-.356.361-.128.234-.128.54 0 .306.128.546.128.233.356.367.228.128.507.128zM176.198 4.54q-.117.1-.29.156-.172.05-.356.05-.445 0-.69-.239-.245-.24-.245-.684v-1.62h-.501v-.44h.5v-.645h.535v.645h.846v.44h-.846V3.8q0 .24.117.368.123.128.345.128.245 0 .418-.14zM176.843 1.763h.534v2.95h-.534zm.267-.567q-.156 0-.261-.1-.1-.1-.1-.245t.1-.245q.105-.106.261-.106.156 0 .256.1.106.095.106.24 0 .15-.106.256-.1.1-.256.1zM179.66 4.746q-.44 0-.791-.194-.35-.195-.551-.535-.195-.345-.195-.779 0-.434.195-.773.2-.345.55-.535.352-.194.791-.194.44 0 .785.194.35.19.545.535.2.34.2.773 0 .434-.2.78-.194.339-.545.534-.345.194-.785.194zm0-.467q.283 0 .506-.128.228-.134.356-.367.128-.24.128-.546 0-.306-.128-.54-.128-.239-.356-.367-.223-.128-.507-.128-.284 0-.512.128-.222.128-.356.367-.128.234-.128.54 0 .306.128.546.134.233.356.367.228.128.512.128zM183.505 1.736q.562 0 .89.328.334.323.334.952v1.697h-.534V3.077q0-.429-.206-.646-.206-.217-.59-.217-.434 0-.684.256-.25.25-.25.724v1.52h-.535v-2.95h.512v.445q.161-.229.434-.351.278-.122.629-.122zM186.794 1.736q.612 0 .935.3.329.3.329.896v1.781h-.507v-.39q-.133.206-.384.318-.245.105-.584.105-.496 0-.796-.239-.295-.24-.295-.629 0-.39.284-.623.284-.24.901-.24h.846V2.91q0-.345-.2-.529-.2-.184-.59-.184-.262 0-.512.09-.25.083-.423.228l-.223-.401q.229-.184.546-.278.317-.1.673-.1zm-.122 2.599q.306 0 .528-.134.223-.14.323-.39V3.4h-.823q-.68 0-.68.456 0 .223.173.35.173.129.479.129zM189.048.583h.535v4.13h-.535zM165.779 10.212q0 .061-.011.161h-2.393q.05.39.34.63.294.233.728.233.529 0 .852-.356l.295.345q-.2.233-.501.356-.295.122-.662.122-.468 0-.83-.189-.361-.195-.562-.54-.195-.345-.195-.779 0-.428.19-.774.194-.345.528-.534.34-.195.763-.195t.751.195q.334.19.518.534.189.346.189.79zm-1.458-1.069q-.384 0-.646.234-.256.234-.3.612h1.892q-.045-.373-.306-.606-.256-.24-.64-.24zM166.52 7.54h.533v4.13h-.534zM170.738 10.212q0 .061-.011.161h-2.393q.05.39.339.63.295.233.73.233.528 0 .85-.356l.296.345q-.2.233-.501.356-.295.122-.663.122-.467 0-.829-.189-.362-.195-.562-.54-.195-.345-.195-.779 0-.428.19-.774.194-.345.528-.534.34-.195.763-.195t.751.195q.334.19.518.534.189.346.189.79zm-1.458-1.069q-.384 0-.646.234-.256.234-.3.612h1.892q-.045-.373-.306-.606-.256-.24-.64-.24zM175.168 8.692q.556 0 .88.323.328.323.328.957v1.698h-.535v-1.636q0-.429-.2-.646-.195-.217-.562-.217-.406 0-.646.256-.24.25-.24.724v1.519h-.533v-1.636q0-.429-.2-.646-.195-.217-.563-.217-.406 0-.645.256-.24.25-.24.724v1.519h-.534V8.72h.512v.44q.161-.228.423-.345.262-.123.595-.123.346 0 .613.14.267.139.412.406.167-.256.461-.4.301-.146.674-.146zM180.043 10.212q0 .061-.01.161h-2.394q.05.39.34.63.294.233.729.233.528 0 .851-.356l.295.345q-.2.233-.5.356-.296.122-.663.122-.468 0-.83-.189-.361-.195-.561-.54-.195-.345-.195-.779 0-.428.189-.774.195-.345.529-.534.34-.195.762-.195.423 0 .751.195.334.19.518.534.19.346.19.79zm-1.458-1.069q-.384 0-.645.234-.257.234-.301.612h1.892q-.044-.373-.306-.606-.256-.24-.64-.24zM182.359 8.692q.562 0 .89.329.334.323.334.951v1.698h-.534v-1.636q0-.429-.206-.646-.206-.217-.59-.217-.434 0-.685.256-.25.25-.25.724v1.519h-.535V8.72h.513v.445q.16-.228.434-.35.278-.123.629-.123zM186.232 11.497q-.117.1-.29.156-.172.05-.356.05-.445 0-.69-.239-.245-.24-.245-.685V9.16h-.5V8.72h.5v-.645h.535v.645h.846v.44h-.846v1.597q0 .24.117.368.122.128.345.128.245 0 .417-.14zM188.453 7.774h.556v3.896h-.556zM190.178 7.774h1.642q.618 0 1.096.245.479.245.74.69.268.44.268 1.013t-.268 1.019q-.261.44-.74.684-.478.245-1.096.245h-1.642zm1.608 3.412q.474 0 .83-.184.361-.184.556-.512.195-.334.195-.768t-.195-.762q-.195-.334-.556-.518-.356-.184-.83-.184h-1.051v2.928z" style="line-height:125%;-inkscape-font-specification:'Montserrat Medium, Medium';font-variant-ligatures:normal;font-variant-caps:normal;font-variant-numeric:normal;font-feature-settings:normal;text-align:center" font-weight="500" font-size="5.565" font-family="Montserrat Medium" letter-spacing="0" word-spacing="0" text-anchor="middle" fill="#333"/><path d="M159.013 25.787V20.28h38.738v5.507" fill="none" stroke="#333" stroke-width=".522" stroke-linecap="round" stroke-linejoin="round"/><g transform="translate(379.534 1.012)" fill="none" stroke="#333" stroke-linecap="round" stroke-linejoin="round"><path d="M-201.152 18.917v-3.1" stroke-width=".52159929"/><circle transform="scale(1 -1)" cx="-201.152" cy="-15.07" r=".725" stroke-width=".522" stroke-dashoffset="72"/></g></svg>